<?xml version="1.0" encoding="utf-8"?>
<!-- Generator: Adobe Illustrator 25.2.1, SVG Export Plug-In . SVG Version: 6.00 Build 0)  -->
<svg version="1.1" id="Guides" xmlns="http://www.w3.org/2000/svg" xmlns:xlink="http://www.w3.org/1999/xlink" x="0px" y="0px"
	 viewBox="0 0 1219.4 801.1" style="enable-background:new 0 0 1219.4 801.1;" xml:space="preserve">
<style type="text/css">
	.st0{clip-path:url(#SVGID_2_);}
	.st1{fill:#FFFFFF;}
	.st2{fill:#3AAA35;}
	.st3{fill:#95C11F;}
</style>
<g>
	<defs>
		<polygon id="SVGID_1_" points="-354.2,1796.3 414.7,1307.9 414.7,1009.4 -354.2,1009.4 		"/>
	</defs>
	<clipPath id="SVGID_2_">
		<use xlink:href="#SVGID_1_"  style="overflow:visible;"/>
	</clipPath>
	<g class="st0">
	</g>
</g>
<path class="st1" d="M25,417.8c-0.7,0.1-1.3-0.4-1.4-1c0-0.1,0-0.2,0-0.4V315.2c-0.1-0.7,0.4-1.4,1.1-1.5c0.1,0,0.2,0,0.3,0
	c2.8-0.1,5.8-0.3,8.9-0.4s6.1-0.2,9.1-0.3s5.8-0.1,8.6-0.2s5.2-0.1,7.4-0.1c6.4,0,12,0.2,16.8,0.7c4.2,0.3,8.3,1.1,12.4,2.1
	c3,0.8,5.9,2.1,8.6,3.8c2.2,1.5,4,3.5,5.4,5.8c1.4,2.5,2.3,5.2,2.8,8c0.5,3.4,0.8,6.9,0.8,10.3v8.4c0,3.5-0.2,7-0.8,10.4
	c-0.4,2.8-1.4,5.5-2.8,8c-1.3,2.3-3.2,4.3-5.4,5.8c-2.6,1.7-5.5,3-8.6,3.8c-4,1.1-8.2,1.8-12.4,2.1c-4.8,0.4-10.4,0.6-16.8,0.6h-5.6
	c-1,0-1.9,0-2.8,0s-1.6,0-2.2-0.1v34c0.1,0.7-0.4,1.3-1.1,1.4c-0.1,0-0.2,0-0.3,0L25,417.8z M59.3,334.7h-2.7l-2.9,0.1
	c-1,0-1.9,0.1-2.9,0.2s-1.8,0.1-2.6,0.2v25.1c0.8,0.1,1.7,0.2,2.6,0.2s1.9,0.1,2.9,0.1l2.9,0.1c1,0,1.8,0,2.7,0
	c4.4,0,8-0.1,10.8-0.3c2.2-0.1,4.4-0.6,6.5-1.5c1.4-0.6,2.6-1.8,3.2-3.2c0.6-1.8,0.9-3.7,0.8-5.6v-4.5c0.1-1.9-0.2-3.8-0.8-5.6
	c-0.6-1.5-1.8-2.6-3.2-3.2c-2.1-0.9-4.3-1.4-6.5-1.5C67.3,334.8,63.7,334.7,59.3,334.7L59.3,334.7z"/>
<path class="st1" d="M207.5,417.8c-0.4,0-0.8-0.1-1.2-0.2c-0.4-0.3-0.6-0.6-0.8-1l-16.1-34.7h-2c-1.8,0-3.7,0-5.5-0.1
	s-3.9-0.2-6.2-0.3v34.9c0.1,0.7-0.4,1.3-1.1,1.4c-0.1,0-0.2,0-0.3,0h-21.9c-0.7,0.1-1.3-0.4-1.4-1c0-0.1,0-0.2,0-0.4V315.3
	c-0.1-0.7,0.4-1.4,1.1-1.5c0.1,0,0.2,0,0.3,0c5.7-0.4,11.3-0.6,16.6-0.8c5.4-0.2,10.6-0.2,15.8-0.2c6.6,0,12.3,0.2,17.3,0.6
	c4.3,0.3,8.6,1,12.8,2c3.1,0.8,6.1,2,8.9,3.7c2.3,1.4,4.2,3.3,5.6,5.6c1.5,2.4,2.4,5.1,2.9,7.8c0.6,3.4,0.9,6.8,0.8,10.2v9.4
	c0.1,4.5-0.4,9-1.6,13.4c-1,3.5-3,6.7-5.8,9c-2.7,2.3-6.9,4-12.4,5.2c0.8,1.3,1.6,2.6,2.5,4c0.9,1.4,1.8,3,2.7,4.8l14.9,27.9
	c0.4,0.8,0.2,1.3-0.8,1.3L207.5,417.8z M186.2,334.7h-2.6l-2.8,0.1c-0.9,0-1.9,0.1-2.8,0.2s-1.8,0.1-2.5,0.2v24.4
	c3,0.3,6.8,0.4,11.3,0.4c4.4,0,7.9-0.1,10.7-0.3c2.2-0.1,4.4-0.6,6.5-1.4c1.4-0.6,2.6-1.7,3.2-3.1c0.7-1.7,1-3.6,0.9-5.4v-4.7
	c0.1-1.8-0.2-3.7-0.8-5.4c-0.6-1.4-1.8-2.5-3.2-3.1c-2.1-0.8-4.4-1.3-6.7-1.4C194.6,334.8,190.9,334.7,186.2,334.7z"/>
<path class="st1" d="M321.1,420c-6.4,0.1-12.7-0.7-18.8-2.4c-5.3-1.5-10.1-4.2-14-8.1c-4.1-4.2-7-9.4-8.7-15c-2-6.2-3-14-3-23.3
	v-141c0-9.2,1-16.9,3-23.1c1.6-5.6,4.6-10.8,8.7-15c3.9-3.8,8.7-6.6,14-8.1c6.1-1.7,12.5-2.5,18.8-2.4c6.4-0.1,12.8,0.7,18.9,2.4
	c5.3,1.5,10.1,4.2,14,8.1c4.1,4.2,7,9.4,8.7,15c2,6.3,3,14,3,23.2v141.1c0,9.3-1,17-3,23.2c-1.6,5.6-4.6,10.8-8.7,15
	c-3.9,3.8-8.7,6.6-14,8.1C333.9,419.3,327.5,420.1,321.1,420z M321.1,206.1c-2.9,0-5.8,0.3-8.6,1.2c-2.4,0.7-4.5,2.1-6.2,3.9
	c-1.8,2.1-3.1,4.5-3.7,7.2c-0.9,3.6-1.3,7.4-1.2,11.1v142.5c-0.1,3.8,0.3,7.5,1.2,11.2c0.7,2.7,1.9,5.2,3.7,7.2
	c1.7,1.8,3.8,3.2,6.2,3.9c2.8,0.8,5.7,1.2,8.6,1.2c2.9,0,5.8-0.3,8.7-1.2c2.4-0.7,4.5-2.1,6.2-3.9c1.8-2.1,3.1-4.6,3.8-7.3
	c0.9-3.7,1.3-7.4,1.3-11.2V229.6c0.1-3.7-0.3-7.5-1.3-11.1c-0.7-2.7-2-5.2-3.8-7.2c-1.7-1.8-3.8-3.2-6.2-4
	C327,206.4,324.1,206,321.1,206.1L321.1,206.1z"/>
<path class="st1" d="M468.7,289c-0.4,0-0.8-0.1-1.2-0.2c-0.4-0.2-0.6-0.6-0.8-1l-16.1-34.6h-2c-1.8,0-3.7,0-5.5-0.1
	s-3.9-0.2-6.2-0.3v34.9c0.1,0.7-0.4,1.3-1.1,1.4c-0.1,0-0.2,0-0.3,0h-22c-0.7,0.1-1.3-0.4-1.4-1.1c0-0.1,0-0.2,0-0.4V186.6
	c-0.1-0.7,0.4-1.4,1.1-1.5c0.1,0,0.2,0,0.3,0c5.7-0.4,11.3-0.6,16.6-0.8s10.6-0.2,15.8-0.2c6.6,0,12.3,0.2,17.3,0.6
	c4.3,0.3,8.6,1,12.8,2c3.1,0.8,6.1,2,8.9,3.7c2.3,1.4,4.2,3.3,5.6,5.6c1.4,2.4,2.4,5.1,2.9,7.8c0.6,3.4,0.9,6.8,0.8,10.2v9.4
	c0.1,4.5-0.4,9-1.6,13.4c-1,3.5-3,6.7-5.8,9c-2.7,2.3-6.9,4-12.4,5.2c0.8,1.3,1.6,2.6,2.5,4s1.8,3,2.7,4.8l14.9,27.9
	c0.4,0.9,0.2,1.3-0.8,1.3L468.7,289z M447.5,205.9H445l-2.8,0.1c-0.9,0-1.9,0.1-2.8,0.1s-1.8,0.1-2.5,0.2v24.5
	c3,0.3,6.8,0.4,11.3,0.4c4.4,0,7.9-0.1,10.7-0.3c2.2-0.1,4.4-0.6,6.5-1.4c1.4-0.6,2.6-1.7,3.2-3.1c0.7-1.7,1-3.6,0.9-5.4v-4.7
	c0.1-1.8-0.2-3.7-0.8-5.4c-0.6-1.4-1.8-2.5-3.2-3.1c-2.1-0.8-4.4-1.3-6.7-1.4C455.9,206,452.1,205.9,447.5,205.9z"/>
<path class="st1" d="M581.9,250.7c-0.7,0.1-1.4-0.5-1.4-1.2c0-0.1,0-0.2,0-0.3v-17c-0.1-0.7,0.4-1.3,1.1-1.4c0.1,0,0.2,0,0.3,0h35
	c0.7-0.1,1.3,0.4,1.4,1.1c0,0.1,0,0.2,0,0.3v52.1c0,0.4-0.1,0.8-0.3,1.2c-0.3,0.3-0.6,0.6-1.1,0.7c-2.6,1-5.3,1.8-8.1,2.5
	c-2.7,0.7-5.5,1.2-8.2,1.5c-2.7,0.4-5.5,0.6-8.1,0.8s-5.2,0.2-7.6,0.2c-6.8,0.1-13.7-0.7-20.3-2.4c-5.5-1.4-10.6-4.2-14.8-8.1
	c-4.2-4.2-7.3-9.3-9-15c-2.1-6.3-3.1-14.1-3.1-23.4v-10.8c0-9.2,1-16.9,3.1-23.1c1.7-5.7,4.8-10.8,9-15c4.2-3.9,9.3-6.7,14.8-8.1
	c6.6-1.7,13.4-2.5,20.3-2.4c2.3,0,4.7,0.1,7.2,0.2s5,0.4,7.5,0.7c2.4,0.3,4.8,0.7,6.9,1.2c2,0.4,3.9,1,5.8,1.6
	c0.4,0.1,0.7,0.3,1,0.7c0.2,0.4,0.2,0.8,0.1,1.2l-3.2,19.1c0,0.7-0.6,1.3-1.3,1.3c-0.1,0-0.2,0-0.4-0.1c-7.5-1.3-15.2-1.9-22.8-1.9
	c-3.5-0.1-7,0.3-10.5,1.2c-2.7,0.7-5.2,2-7.3,3.9c-2,2-3.5,4.5-4.3,7.3c-1,3.7-1.5,7.6-1.4,11.4v12.2c-0.1,3.9,0.3,7.7,1.3,11.5
	c0.7,2.7,2,5.3,4,7.3c1.9,1.9,4.2,3.2,6.8,3.9c3.2,0.8,6.6,1.2,9.9,1.1h4.5c1.5,0,3,0,4.5-0.1v-15.4L581.9,250.7z"/>
<path class="st1" d="M657.3,289c-0.9,0-1.3-0.4-1-1.3L687,186.5c0.1-0.4,0.3-0.8,0.7-1.1c0.4-0.2,0.8-0.3,1.2-0.3H720
	c0.4,0,0.8,0.1,1.2,0.3c0.3,0.3,0.6,0.6,0.7,1.1l30.8,101.2c0.3,0.9,0,1.3-1,1.3h-24.3c-0.8,0.1-1.6-0.5-1.8-1.3l-4.2-15.6h-34
	l-4.2,15.6c-0.2,0.8-0.9,1.4-1.8,1.3L657.3,289z M704.4,209.1l-11.1,41.4h22.4L704.4,209.1z"/>
<path class="st1" d="M790,289c-0.7,0.1-1.3-0.4-1.4-1.1c0-0.1,0-0.2,0-0.3V186.6c-0.1-0.7,0.4-1.3,1.1-1.4c0.1,0,0.2,0,0.4,0h23.8
	c0.9-0.1,1.7,0.4,2.1,1.2l30.9,52.9c0.5,0.8,0.9,1.7,1.3,2.5c0.4,0.8,0.7,1.5,1,2.1s0.5,1.1,0.6,1.5c0.1,0.2,0.1,0.4,0.2,0.6
	l0.1-59.4c-0.1-0.7,0.4-1.3,1.1-1.4c0.1,0,0.2,0,0.4,0h21.8c0.7-0.1,1.3,0.4,1.4,1c0,0.1,0,0.2,0,0.4v101.1c0.1,0.7-0.4,1.3-1.1,1.4
	c-0.1,0-0.2,0-0.3,0h-23.8c-0.4,0-0.9-0.1-1.2-0.2c-0.4-0.2-0.7-0.6-0.9-1l-30.7-52.6c-1-1.6-1.8-3.3-2.6-5.1
	c-0.2-0.7-0.5-1.3-0.9-1.9v59.4c0.1,0.7-0.4,1.3-1,1.4c-0.1,0-0.2,0-0.4,0L790,289z"/>
<path class="st1" d="M922.4,289c-0.7,0.1-1.3-0.4-1.4-1.1c0-0.1,0-0.2,0-0.4V186.6c-0.1-0.7,0.4-1.3,1-1.4c0.1,0,0.2,0,0.4,0h21.9
	c0.7-0.1,1.3,0.4,1.4,1c0,0.1,0,0.2,0,0.4v101.1c0.1,0.7-0.4,1.3-1.1,1.4c-0.1,0-0.2,0-0.3,0H922.4z"/>
<path class="st1" d="M1034.3,291.2c-6.6,0.1-13.2-0.7-19.6-2.4c-5.5-1.4-10.5-4.2-14.6-8.1c-4.2-4.2-7.3-9.3-9.1-15
	c-2.1-6.2-3.1-14-3.1-23.3v-10.8c0-9.2,1-16.9,3.1-23.1c1.8-5.7,4.9-10.8,9.1-15c4.1-3.9,9.1-6.6,14.6-8.1c6.4-1.7,13-2.5,19.6-2.4
	c2.5,0,5.1,0.1,7.6,0.2c2.5,0.2,4.9,0.4,7.2,0.7c2.3,0.3,4.5,0.7,6.5,1.2c1.9,0.4,3.7,1,5.5,1.6c0.4,0.1,0.7,0.3,1,0.7
	c0.2,0.4,0.2,0.8,0.1,1.2l-3.2,19.1c0,0.7-0.6,1.2-1.2,1.2c-0.1,0-0.3,0-0.4-0.1c-3.6-0.8-7.3-1.4-11.1-1.7
	c-3.7-0.3-7.4-0.5-11.1-0.5c-3.3-0.1-6.5,0.3-9.7,1.2c-2.7,0.7-5.1,2.1-7.1,4c-2,2.1-3.5,4.6-4.3,7.4c-1,3.7-1.5,7.6-1.4,11.5v12.2
	c-0.1,3.9,0.4,7.8,1.5,11.5c0.8,2.8,2.3,5.4,4.3,7.5c1.9,1.9,4.4,3.3,7,4c3.2,0.8,6.5,1.3,9.8,1.2c3.9,0,7.8-0.1,11.6-0.4
	s7.7-0.6,11.5-1c0.7-0.2,1.4,0.2,1.6,0.8c0,0.1,0.1,0.2,0.1,0.4l2.8,19.6c0.2,0.7-0.2,1.4-0.9,1.6c-0.1,0-0.2,0-0.2,0
	c-1.7,0.4-3.5,0.8-5.6,1.1s-4.3,0.6-6.7,0.8s-4.8,0.4-7.4,0.5S1036.9,291.2,1034.3,291.2z"/>
<path class="st1" d="M1093.4,289c-0.9,0-1.3-0.4-1-1.3l30.7-101.2c0.1-0.4,0.3-0.8,0.7-1.1c0.4-0.2,0.8-0.3,1.2-0.3h31.1
	c0.4,0,0.8,0.1,1.2,0.3c0.3,0.3,0.6,0.6,0.7,1.1l30.8,101.2c0.3,0.9,0,1.3-1,1.3h-24.3c-0.8,0.1-1.6-0.5-1.8-1.3l-4.2-15.6h-34
	l-4.2,15.6c-0.2,0.8-0.9,1.4-1.8,1.3H1093.4z M1140.4,209.1l-11.1,41.4h22.4L1140.4,209.1z"/>
<path class="st2" d="M968.8,83.1c0-42-35.4-56.6-35.4-56.6v113.3C933.4,139.8,968.8,125.2,968.8,83.1z"/>
<path class="st3" d="M933.4,139.8V26.5c0,0-35.4,14.6-35.4,56.6S933.4,139.8,933.4,139.8z"/>
<path class="st1" d="M821,437.7c0,10.6-4.7,16.6-13.1,16.6h-5.8V473h-9.8v-52.3h15.1C816.1,420.7,821,426.7,821,437.7z M802.1,446.5
	h5c3,0,4.3-2.3,4.3-8.8c0-6.6-1.3-8.6-4.3-8.6h-5V446.5z"/>
<path class="st1" d="M841.5,451.8H838V473h-9.8v-52.3h14.5c9.5,0,13.7,5.4,13.7,15c0,7.3-2.1,11.8-6.4,13.7l8.6,23.6h-10.3
	L841.5,451.8z M838,444.1h4.2c3.6,0,4.7-2,4.7-7.6c0-6-1.4-7.5-4.7-7.5h-4.2L838,444.1z"/>
<path class="st1" d="M894.1,436.5v20.6c0,10.4-5.2,16.6-15.2,16.6s-15.2-6.2-15.2-16.6v-20.6c0-10.4,5.2-16.6,15.2-16.6
	S894.1,426.1,894.1,436.5z M884.4,436.5c0-6-1.7-8.2-5.5-8.2s-5.6,2.1-5.6,8.2v20.6c0,6.2,1.7,8.3,5.6,8.3s5.5-2.2,5.5-8.3V436.5z"
	/>
<path class="st1" d="M907.6,473h-9.7l12-52.3h11.4l12,52.3h-9.9l-2.1-11.5h-11.6L907.6,473z M911.1,454.1h8.8l-4.3-23.5h-0.2
	L911.1,454.1z"/>
<path class="st1" d="M964.6,432.2l-7.4,2.3c-0.7-4.2-2.3-6.1-5.1-6.1c-3.7,0-5.3,2.5-5.3,7.7v22.3c0,4.4,1.6,7.1,5.2,7.1
	c2.9,0,4.5-1.7,5.3-6.5l7.4,2.2c-1.4,8.7-5.9,12.5-13.5,12.5c-8.7,0-14.1-5.9-14.1-15.2v-22.4c0-10.1,5.5-16.2,14.3-16.2
	C958.4,420,963.4,424.9,964.6,432.2z"/>
<path class="st1" d="M996.8,420.7v8.8h-9.2V473h-9.8v-43.5h-9.1v-8.8H996.8z"/>
<path class="st1" d="M1013.5,420.7V473h-9.7v-52.3H1013.5z"/>
<path class="st1" d="M1043.1,473h-10.4l-12.6-52.3h10.4l7.3,39.5h0.2l7.3-39.5h10.5L1043.1,473z"/>
<path class="st1" d="M1086.3,420.7v8.7h-14.9v12.7h11.3v7.7h-11.3v14.6h15.5v8.7h-25.3v-52.4H1086.3z"/>
<path class="st1" d="M821,517.7c0,10.6-4.7,16.6-13.1,16.6h-5.8V553h-9.8v-52.3h15.1C816.1,500.7,821,506.7,821,517.7z M802.1,526.5
	h5c3,0,4.3-2.3,4.3-8.8c0-6.6-1.3-8.6-4.3-8.6h-5V526.5z"/>
<path class="st1" d="M841.5,531.8H838V553h-9.8v-52.3h14.5c9.5,0,13.7,5.4,13.7,15c0,7.3-2.1,11.8-6.4,13.7l8.6,23.6h-10.3
	L841.5,531.8z M838,524.1h4.2c3.6,0,4.7-2,4.7-7.6c0-6-1.4-7.5-4.7-7.5h-4.2L838,524.1z"/>
<path class="st1" d="M894.1,516.5v20.6c0,10.4-5.2,16.6-15.2,16.6s-15.2-6.2-15.2-16.6v-20.6c0-10.4,5.2-16.6,15.2-16.6
	S894.1,506.1,894.1,516.5z M884.4,516.5c0-6-1.7-8.2-5.5-8.2s-5.6,2.1-5.6,8.2v20.6c0,6.2,1.7,8.3,5.6,8.3s5.5-2.2,5.5-8.3V516.5z"
	/>
<path class="st1" d="M927.3,500.7v8.7h-15.2v13.4h13v8.2h-13v22h-9.8v-52.3H927.3z"/>
<path class="st1" d="M959.3,500.7v8.7h-14.9v12.7h11.2v7.7h-11.2v14.6h15.5v8.7h-25.3v-52.4H959.3z"/>
<path class="st1" d="M992.3,511.2l-7,2.9c-1.1-4.4-3.3-6.1-6.3-6.1s-4.3,1.8-4.3,5.3c0,9.1,17.7,9.7,17.7,25.7
	c0,9.4-5.3,14.7-13.9,14.7c-6.8,0-12.8-4.6-14.1-12.6l7.5-2.3c1.2,5.1,3.8,6.9,6.6,6.9c3.3,0,4.7-1.7,4.7-5.3
	c0-10.6-18.1-11.1-18.1-26.6c0-7.8,4.9-13.8,13.2-13.8C986.1,500,990.1,504.3,992.3,511.2z"/>
<path class="st1" d="M1024.6,511.2l-7,2.9c-1.1-4.4-3.3-6.1-6.3-6.1s-4.3,1.8-4.3,5.3c0,9.1,17.7,9.7,17.7,25.7
	c0,9.4-5.3,14.7-13.9,14.7c-6.8,0-12.8-4.6-14.1-12.6l7.5-2.3c1.1,5.1,3.8,6.9,6.6,6.9c3.3,0,4.7-1.7,4.7-5.3
	c0-10.6-18.1-11.1-18.1-26.6c0-7.8,4.9-13.8,13.2-13.8C1018.4,500,1022.4,504.3,1024.6,511.2z"/>
<path class="st1" d="M1042,500.7V553h-9.7v-52.3H1042z"/>
<path class="st1" d="M1081.3,516.5v20.6c0,10.4-5.2,16.6-15.2,16.6s-15.2-6.2-15.2-16.6v-20.6c0-10.4,5.2-16.6,15.2-16.6
	S1081.3,506.1,1081.3,516.5z M1071.6,516.5c0-6-1.7-8.2-5.6-8.2s-5.6,2.1-5.6,8.2v20.6c0,6.2,1.7,8.3,5.6,8.3s5.6-2.2,5.6-8.3V516.5
	z"/>
<path class="st1" d="M1096.7,500.7l13.9,29h0.2v-29h8.5V553h-6.6l-14.3-30.2h-0.2V553h-8.6v-52.3H1096.7z"/>
<path class="st1" d="M1135.1,553h-9.7l12-52.3h11.4l12,52.3h-9.9l-2.1-11.5h-11.6L1135.1,553z M1138.6,534.1h8.8l-4.3-23.5h-0.2
	L1138.6,534.1z"/>
<path class="st1" d="M1176.3,500.7v43.4h14.3v8.9h-23.7v-52.3H1176.3z"/>
<path class="st1" d="M821,597.7c0,10.6-4.7,16.6-13.1,16.6h-5.8V633h-9.8v-52.3h15.1C816.1,580.7,821,586.7,821,597.7z M802.1,606.5
	h5c3,0,4.3-2.3,4.3-8.8c0-6.6-1.3-8.6-4.3-8.6h-5V606.5z"/>
<path class="st1" d="M841.5,611.8H838V633h-9.8v-52.3h14.5c9.5,0,13.7,5.4,13.7,15c0,7.3-2.1,11.8-6.4,13.7l8.6,23.6h-10.3
	L841.5,611.8z M838,604.1h4.2c3.6,0,4.7-2,4.7-7.6c0-6-1.4-7.5-4.7-7.5h-4.2L838,604.1z"/>
<path class="st1" d="M894.1,596.5v20.6c0,10.4-5.2,16.6-15.2,16.6s-15.2-6.2-15.2-16.6v-20.6c0-10.4,5.2-16.6,15.2-16.6
	S894.1,586.1,894.1,596.5z M884.4,596.5c0-6-1.7-8.2-5.5-8.2s-5.6,2.1-5.6,8.2v20.6c0,6.2,1.7,8.3,5.6,8.3s5.5-2.2,5.5-8.3V596.5z"
	/>
<path class="st1" d="M931.2,592.1l-7.3,2.3c-1.4-4.6-3.3-6.2-6.3-6.2c-4.6,0-6.6,2.8-6.6,9.1v19.5c0,5.8,2.3,8.2,6.4,8.2
	c2.2,0.1,4.3-1.1,5.3-3v-9h-4.5v-6.7h13V633h-8v-2.7c-2.3,2.3-5.4,3.5-8.6,3.4c-8,0-13.4-5.4-13.4-16.8v-19.6
	c0-10.5,5-17.4,15.6-17.4C924.3,579.9,929.8,584.2,931.2,592.1z"/>
<path class="st1" d="M952.9,611.8h-3.4V633h-9.8v-52.3h14.6c9.5,0,13.7,5.4,13.7,15c0,7.3-2.1,11.8-6.4,13.7l8.6,23.6h-10.3
	L952.9,611.8z M949.4,604.1h4.2c3.6,0,4.7-2,4.7-7.6c0-6-1.4-7.5-4.7-7.5h-4.2V604.1z"/>
<path class="st1" d="M1000.9,580.7v8.7H986v12.7h11.2v7.7H986v14.6h15.5v8.7h-25.2v-52.4H1000.9z"/>
<path class="st1" d="M1033.9,591.2l-7,2.9c-1.1-4.4-3.3-6.1-6.3-6.1s-4.3,1.8-4.3,5.3c0,9.1,17.7,9.7,17.7,25.7
	c0,9.4-5.3,14.7-13.9,14.7c-6.8,0-12.8-4.6-14.1-12.6l7.5-2.3c1.1,5.1,3.8,6.9,6.6,6.9c3.3,0,4.7-1.7,4.7-5.3
	c0-10.6-18.1-11.1-18.1-26.6c0-7.8,4.9-13.8,13.2-13.8C1027.7,580,1031.7,584.3,1033.9,591.2z"/>
<path class="st1" d="M1066.2,591.2l-7,2.9c-1.1-4.4-3.3-6.1-6.3-6.1s-4.3,1.8-4.3,5.3c0,9.1,17.7,9.7,17.7,25.7
	c0,9.4-5.3,14.7-13.9,14.7c-6.8,0-12.8-4.6-14.1-12.6l7.5-2.3c1.2,5.1,3.8,6.9,6.6,6.9c3.3,0,4.7-1.7,4.7-5.3
	c0-10.6-18.1-11.1-18.1-26.6c0-7.8,4.9-13.8,13.2-13.8C1059.9,580,1064,584.3,1066.2,591.2z"/>
<path class="st1" d="M1083.6,580.7V633h-9.7v-52.3H1083.6z"/>
<path class="st1" d="M1113.1,633h-10.4l-12.6-52.3h10.4l7.3,39.5h0.2l7.3-39.5h10.5L1113.1,633z"/>
<path class="st1" d="M1156.3,580.7v8.7h-14.9v12.7h11.2v7.7h-11.2v14.6h15.5v8.7h-25.3v-52.4H1156.3z"/>
<path class="st1" d="M193,770.6h4.4l-0.5,5h-4.4L193,770.6z"/>
<path class="st1" d="M202.7,770.6h4.4l-0.5,5h-4.4L202.7,770.6z"/>
<path class="st1" d="M212.3,770.6h4.4l-0.5,5h-4.4L212.3,770.6z"/>
<path class="st1" d="M229.6,752l-2.9,23.6h-5.3l2.8-23.6H229.6z M230.3,744.2l-0.6,5H225l0.6-5H230.3z"/>
<path class="st1" d="M244.3,756.4h-4.1l-1.5,11.9c-0.1,0.4-0.1,0.8-0.1,1.2c0,1.3,0.7,2.1,1.9,2.1c0.5,0,1.1-0.1,1.6-0.3v3.5
	c-1.2,0.7-2.6,1.1-4,1.1c-3.4,0-4.8-1.7-4.8-5.3c0-0.6,0-1.2,0.1-1.8l1.6-12.2l-2.2-0.7l0.4-3.9l2.6-0.2l2-5.1h3.7l-0.7,5.2h4.1
	L244.3,756.4z"/>
<path class="st1" d="M248.5,744.1h4.2l-0.4,3.4c-0.1,2.3-1.3,4.5-3.2,5.9l-1.2-1.2c0.9-0.8,1.5-1.9,1.7-3.1l-1.7-0.4L248.5,744.1z"
	/>
<path class="st1" d="M262.2,757.8c-0.2-2.5-1.3-3-2.6-3c-1.5,0-2.4,1-2.4,2.7c0,3.6,7.3,3.8,7.3,10.1c0,4.8-3.4,8.4-7.8,8.4
	c-3.6,0-5.8-1.8-6.3-6l3.8-1.5c0.3,2.5,1.6,3.4,2.8,3.4c1.2,0,2.4-0.9,2.4-3c0-4-7.4-3.9-7.4-10.3c-0.2-4.2,3.1-7.8,7.3-8
	c0.2,0,0.4,0,0.6,0c3.5,0,5.5,2.1,6,6L262.2,757.8z"/>
<path class="st1" d="M276.9,759.7c0.9-6,3.5-8.9,7.4-8.9c1.6,0,3.1,0.6,4.1,1.8l0.4-1.5h4.8l-3,24.5h-4.6V773H286
	c-1.4,1.8-3.6,2.9-5.8,3c-3,0-4.5-1.9-4.5-5.9c0-0.8,0-1.5,0.2-2.3L276.9,759.7z M286.1,768.9l1.7-12.9c-0.7-0.5-1.5-0.8-2.4-0.8
	c-1.7,0-2.7,1.2-3.1,4.4l-1.1,7.9c-0.1,0.5-0.1,0.9-0.1,1.4c0,1.7,0.7,2.1,1.7,2.1C284.1,770.9,285.3,770.1,286.1,768.9L286.1,768.9
	z"/>
<path class="st1" d="M305,744.2l-3.9,31.4h-5.3l3.8-31.4H305z"/>
<path class="st1" d="M315.9,744.2l-3.9,31.4h-5.3l3.8-31.4H315.9z"/>
<path class="st1" d="M326.7,759.7c0.9-6,3.5-8.9,7.4-8.9c1.6,0,3.1,0.6,4.1,1.8l0.4-1.5h4.8l-3,24.5h-4.6V773h-0.1
	c-1.4,1.8-3.6,2.9-5.9,3c-3,0-4.5-1.9-4.5-5.9c0-0.8,0-1.5,0.1-2.3L326.7,759.7z M335.9,768.9l1.7-12.9c-0.7-0.5-1.5-0.8-2.4-0.8
	c-1.7,0-2.7,1.2-3.1,4.4l-1.1,7.9c-0.1,0.5-0.1,0.9-0.1,1.4c0,1.7,0.7,2.1,1.7,2.1C333.9,770.9,335.2,770.1,335.9,768.9L335.9,768.9
	z"/>
<path class="st1" d="M354.5,744.2l-1.2,8.9h0.1c1.4-1.5,3.4-2.4,5.5-2.5c3,0,4.5,1.9,4.5,5.7c0,0.8-0.1,1.6-0.2,2.3l-1.2,8.2
	c-0.9,6.1-3.5,9-7.3,9c-1.7,0-3.3-0.7-4.3-2h-0.1l-0.4,1.6h-4.6l3.9-31.4L354.5,744.2z M352.8,757.6l-1.6,12.9
	c0.7,0.6,1.6,0.9,2.5,0.9c1.6,0,2.7-1.2,3.1-4.5l1.1-8.1c0-0.5,0.1-1,0.1-1.3c0-1.7-0.7-2.2-1.7-2.2
	C355,755.4,353.7,756.4,352.8,757.6z"/>
<path class="st1" d="M381.5,767.8c-0.6,4.6-3.6,8.2-8.9,8.2c-4.8,0-7.1-2.9-7.1-6.9c0-0.4,0-0.9,0.1-1.3l1.2-9
	c0.6-4.6,3.6-8.2,8.9-8.2c4.8,0,7.1,2.8,7.1,6.8c0,0.5,0,1-0.1,1.4L381.5,767.8z M371,767.6c-0.1,0.4-0.1,0.8-0.1,1.2
	c0,1.9,0.8,2.7,2.2,2.7c1.8,0,2.7-1.2,3.1-3.9l1.2-8.6c0.1-0.4,0.1-0.8,0.1-1.2c0-1.9-0.8-2.7-2.3-2.7c-1.8,0-2.7,1.2-3,3.9
	L371,767.6z"/>
<path class="st1" d="M390.8,767.5c0,0.5-0.1,1-0.1,1.4c0,1.7,0.7,2.1,1.7,2.1c1.4-0.1,2.7-0.9,3.4-2.2L398,751h5.3l-3,24.5h-4.6V773
	h-0.1c-1.4,1.8-3.6,2.9-5.9,2.9c-3,0-4.5-1.9-4.5-5.8c0-0.8,0.1-1.5,0.2-2.3l2.2-16.8h5.3L390.8,767.5z"/>
<path class="st1" d="M417.5,756.4h-4.1l-1.5,11.9c-0.1,0.4-0.1,0.8-0.1,1.2c0,1.3,0.7,2.1,1.9,2.1c0.5,0,1.1-0.1,1.6-0.3l0,3.5
	c-1.2,0.7-2.6,1.1-4,1.1c-3.4,0-4.8-1.7-4.8-5.3c0-0.6,0-1.2,0.1-1.8l1.6-12.2L406,756l0.4-3.9l2.6-0.2l2-5.1h3.7L414,752h4.1
	L417.5,756.4z"/>
<path class="st1" d="M426.5,780.5l3.6-29.5h4.6v2.5h0.1c1.4-1.8,3.6-2.9,5.9-3c3,0,4.5,1.9,4.5,5.7c0,0.8-0.1,1.6-0.1,2.3l-1.2,8.2
	c-0.9,6.1-3.5,9-7.3,9c-1.4,0.1-2.9-0.5-3.9-1.5h-0.1l-0.7,6.2L426.5,780.5z M434.6,757.5l-1.6,13c0.7,0.5,1.5,0.8,2.4,0.8
	c1.6,0,2.7-1.2,3.1-4.5l1.1-8.1c0-0.5,0.1-1,0.1-1.3c0-1.7-0.7-2.2-1.7-2.2C436.6,755.5,435.4,756.3,434.6,757.5L434.6,757.5z"/>
<path class="st1" d="M460.4,756.6c-0.5-0.3-1-0.5-1.6-0.5c-2,0-3.8,2.3-4.9,7l-1.5,12.4h-5.3l3-24.5h4.6l-0.3,4.7h0.1
	c1.6-3.7,3.3-5,5.3-5c0.6,0,1.3,0.1,1.8,0.5L460.4,756.6z"/>
<path class="st1" d="M477.6,767.8c-0.6,4.6-3.6,8.2-8.9,8.2c-4.8,0-7.1-2.9-7.1-6.9c0-0.4,0-0.9,0.1-1.3l1.2-9
	c0.6-4.6,3.6-8.2,8.9-8.2c4.8,0,7,2.8,7,6.8c0,0.5,0,1-0.1,1.4L477.6,767.8z M467.1,767.6c0,0.4-0.1,0.8-0.1,1.2
	c0,1.9,0.8,2.7,2.2,2.7c1.8,0,2.7-1.2,3.1-3.9l1.2-8.6c0.1-0.4,0.1-0.8,0.1-1.2c0-1.9-0.8-2.7-2.2-2.7c-1.8,0-2.7,1.2-3,3.9
	L467.1,767.6z"/>
<path class="st1" d="M493,758c-0.3-2.2-1-2.9-2.2-2.9c-1.8,0-2.8,1.2-3.2,4.4l-1.2,8.5c0,0.4-0.1,0.8-0.1,1.1c0,1.7,0.7,2.3,2,2.3
	s2.6-0.9,3.4-3.2l3.9,1.3c-1.6,4.2-4.3,6.4-8.5,6.4s-6.1-2.8-6.1-6.3c0-0.4,0-0.9,0.1-1.3l1.2-9c0.6-4.8,3.3-8.8,8.6-8.8
	c3.4,0,5.7,2.1,6.1,6.2L493,758z"/>
<path class="st1" d="M504.4,764.2l-0.4,3.4c-0.1,0.4-0.1,0.7-0.1,1.1c0,2,0.9,2.8,2.5,2.8s2.5-0.9,3.5-3.4l3.9,1.2
	c-1.6,4.5-4.2,6.6-8.4,6.6c-4.5,0-6.8-2.9-6.8-6.9c0-0.4,0-0.9,0.1-1.3l1.2-9c0.6-4.5,3.5-8.2,8.6-8.2c4.4,0,6.5,3,6.5,7
	c0,0.5,0,1-0.1,1.4l-0.7,5.2L504.4,764.2z M504.9,760.7h5l0.3-2.2c0.1-0.4,0.1-0.7,0.1-1.1c0-1.8-0.7-2.5-2.1-2.5
	c-1.7,0-2.6,1.1-3,3.5L504.9,760.7z"/>
<path class="st1" d="M528.5,757.8c-0.2-2.5-1.3-3-2.6-3c-1.5,0-2.4,1-2.4,2.7c0,3.6,7.3,3.8,7.3,10.1c0,4.8-3.4,8.4-7.8,8.4
	c-3.5,0-5.8-1.8-6.3-6l3.8-1.5c0.3,2.5,1.6,3.4,2.8,3.4s2.4-0.9,2.4-3c0-4-7.4-3.9-7.4-10.3c-0.2-4.2,3.1-7.8,7.3-8
	c0.2,0,0.4,0,0.6,0c3.5,0,5.5,2.1,6,6L528.5,757.8z"/>
<path class="st1" d="M545.2,757.8c-0.2-2.5-1.3-3-2.6-3c-1.5,0-2.4,1-2.4,2.7c0,3.6,7.3,3.8,7.3,10.1c0,4.8-3.4,8.4-7.8,8.4
	c-3.6,0-5.8-1.8-6.3-6l3.8-1.5c0.3,2.5,1.6,3.4,2.8,3.4s2.4-0.9,2.4-3c0-4-7.4-3.9-7.4-10.3c-0.2-4.2,3.1-7.8,7.3-8
	c0.2,0,0.4,0,0.6,0c3.5,0,5.5,2.1,6,6L545.2,757.8z"/>
<path class="st1" d="M558.8,752l-2.9,23.6h-5.3l2.8-23.6H558.8z M559.4,744.2l-0.6,5h-4.7l0.6-5H559.4z"/>
<path class="st1" d="M576.8,775.6h-5.3l2.1-16.5c0-0.5,0.1-0.9,0.1-1.3c0-1.8-0.7-2.2-1.7-2.2c-1.4,0.2-2.7,1-3.4,2.2l-2.2,17.8H561
	l3-24.5h4.6v2.5h0.1c1.4-1.8,3.6-2.9,5.9-3c3,0,4.5,1.9,4.5,5.7c0,0.8-0.1,1.6-0.1,2.3L576.8,775.6z"/>
<path class="st1" d="M582.5,759.1c0.8-5.8,3.8-8.4,7.3-8.4c1.6,0,3.1,0.6,4.1,1.8l0.4-1.5h4.9l-2.5,20.3c-0.8,6.5-4.4,9.5-9.3,9.5
	c-2.1,0-4.2-0.5-6.1-1.3l0.9-4.2c1.5,0.6,3.2,1,4.8,1.1c2.6,0,4.1-1.5,4.5-4.5v-0.6c-1.4,1.5-3.3,2.3-5.3,2.3c-3.1,0-4.9-2-4.9-5.9
	c0-0.6,0-1.1,0.1-1.7L582.5,759.1z M591.8,767.3l1.4-11.2c-0.7-0.5-1.5-0.8-2.4-0.8c-1.7,0-2.7,0.8-3.1,4.1l-0.9,6.6
	c-0.1,0.4-0.1,0.7-0.1,1.1c0,1.7,0.7,2.3,1.8,2.3C589.9,769.2,591.1,768.4,591.8,767.3z"/>
<path class="st1" d="M625.3,767.8c-0.6,4.6-3.6,8.2-8.9,8.2c-4.8,0-7.1-2.9-7.1-6.9c0-0.4,0-0.9,0.1-1.3l1.2-9
	c0.6-4.6,3.6-8.2,8.9-8.2c4.8,0,7.1,2.8,7.1,6.8c0,0.5,0,1-0.1,1.4L625.3,767.8z M614.8,767.6c-0.1,0.4-0.1,0.8-0.1,1.2
	c0,1.9,0.8,2.7,2.2,2.7c1.8,0,2.7-1.2,3.1-3.9l1.2-8.6c0.1-0.4,0.1-0.8,0.1-1.2c0-1.9-0.8-2.7-2.3-2.7c-1.8,0-2.7,1.2-3,3.9
	L614.8,767.6z"/>
<path class="st1" d="M642,756.6c-0.5-0.3-1-0.5-1.6-0.5c-2,0-3.8,2.3-4.9,7l-1.5,12.4h-5.3l3-24.5h4.6l-0.3,4.7h0.1
	c1.6-3.7,3.3-5,5.3-5c0.6,0,1.3,0.1,1.8,0.5L642,756.6z"/>
<path class="st1" d="M644.3,759.1c0.8-5.8,3.7-8.4,7.3-8.4c1.6,0,3.1,0.6,4.1,1.8l0.4-1.5h4.8l-2.5,20.3c-0.8,6.5-4.4,9.5-9.3,9.5
	c-2.1,0-4.2-0.5-6.1-1.3l0.9-4.2c1.5,0.6,3.2,1,4.8,1.1c2.6,0,4.1-1.5,4.5-4.5v-0.6c-1.4,1.5-3.3,2.3-5.3,2.3c-3.1,0-4.9-2-4.9-5.9
	c0-0.6,0-1.2,0.1-1.7L644.3,759.1z M653.7,767.3l1.4-11.2c-0.7-0.5-1.5-0.8-2.4-0.8c-1.7,0-2.7,0.8-3.1,4.1l-0.9,6.6
	c0,0.4-0.1,0.8-0.1,1.1c0,1.7,0.7,2.3,1.8,2.3C651.7,769.2,652.9,768.4,653.7,767.3z"/>
<path class="st1" d="M664.2,759.7c0.9-6,3.5-8.9,7.4-8.9c1.6,0,3.1,0.6,4.1,1.8l0.4-1.5h4.8l-3,24.5h-4.6V773h-0.1
	c-1.4,1.8-3.6,2.9-5.9,3c-3,0-4.5-1.9-4.5-5.9c0-0.8,0-1.5,0.1-2.3L664.2,759.7z M673.4,768.9l1.7-12.9c-0.7-0.5-1.5-0.8-2.4-0.8
	c-1.7,0-2.7,1.2-3.1,4.4l-1.1,7.9c-0.1,0.5-0.1,0.9-0.1,1.4c0,1.7,0.7,2.1,1.7,2.1C671.4,770.9,672.6,770.1,673.4,768.9L673.4,768.9
	z"/>
<path class="st1" d="M698.5,775.6h-5.3l2.1-16.5c0.1-0.5,0.1-0.9,0.1-1.3c0-1.8-0.7-2.2-1.7-2.2c-1.4,0.2-2.7,1-3.4,2.2l-2.2,17.8
	h-5.3l3-24.5h4.6v2.5h0.1c1.4-1.8,3.6-2.9,5.9-3c3,0,4.5,1.9,4.5,5.7c0,0.8-0.1,1.6-0.1,2.3L698.5,775.6z"/>
<path class="st1" d="M711.4,752l-2.9,23.6h-5.3l2.8-23.6H711.4z M712.1,744.2l-0.6,5h-4.7l0.6-5H712.1z"/>
<path class="st1" d="M725.7,758c-0.3-2.2-1-2.9-2.2-2.9c-1.8,0-2.8,1.2-3.2,4.4l-1.2,8.5c0,0.4-0.1,0.8-0.1,1.1c0,1.7,0.7,2.3,2,2.3
	s2.6-0.9,3.4-3.2l3.9,1.3c-1.6,4.2-4.3,6.4-8.4,6.4s-6.1-2.8-6.1-6.3c0-0.4,0-0.9,0.1-1.3l1.2-9c0.6-4.8,3.3-8.8,8.6-8.8
	c3.4,0,5.7,2.1,6.1,6.2L725.7,758z"/>
<path class="st1" d="M740.4,759.1c0.8-5.8,3.7-8.4,7.3-8.4c1.6,0,3.1,0.6,4.1,1.8l0.4-1.5h4.8l-2.4,20.3c-0.8,6.5-4.4,9.5-9.3,9.5
	c-2.1,0-4.2-0.5-6.1-1.3l0.9-4.2c1.5,0.6,3.2,1,4.8,1.1c2.6,0,4.1-1.5,4.5-4.5l0.1-0.6c-1.4,1.5-3.3,2.3-5.3,2.3
	c-3.1,0-4.9-2-4.9-5.9c0-0.6,0-1.2,0.1-1.7L740.4,759.1z M749.8,767.3l1.4-11.2c-0.7-0.5-1.5-0.8-2.4-0.8c-1.7,0-2.7,0.8-3.1,4.1
	l-0.9,6.6c-0.1,0.4-0.1,0.7-0.1,1.1c0,1.7,0.7,2.3,1.8,2.3C747.9,769.2,749.1,768.4,749.8,767.3z"/>
<path class="st1" d="M772.3,756.6c-0.5-0.3-1-0.5-1.6-0.5c-2,0-3.8,2.3-4.9,7l-1.5,12.4H759l3-24.5h4.6l-0.3,4.7h0.1
	c1.6-3.7,3.3-5,5.3-5c0.7,0,1.3,0.1,1.8,0.5L772.3,756.6z"/>
<path class="st1" d="M774.8,759.7c0.9-6,3.4-8.9,7.4-8.9c1.6,0,3.1,0.6,4.1,1.8l0.4-1.5h4.8l-3,24.5H784V773h-0.1
	c-1.4,1.8-3.6,2.9-5.9,3c-3,0-4.5-1.9-4.5-5.9c0-0.8,0-1.5,0.1-2.3L774.8,759.7z M783.9,768.9l1.7-12.9c-0.7-0.5-1.5-0.8-2.4-0.8
	c-1.7,0-2.7,1.2-3.1,4.4l-1.1,7.9c-0.1,0.5-0.1,0.9-0.1,1.4c0,1.7,0.7,2.1,1.7,2.1C781.9,770.9,783.2,770.1,783.9,768.9L783.9,768.9
	z"/>
<path class="st1" d="M801.8,752l-2.9,23.6h-5.3l2.8-23.6H801.8z M802.4,744.2l-0.6,5h-4.7l0.6-5H802.4z"/>
<path class="st1" d="M819.7,775.6h-5.3l2.1-16.5c0-0.5,0.1-0.9,0.1-1.3c0-1.8-0.7-2.2-1.7-2.2c-1.4,0.1-2.7,1-3.4,2.2l-2.2,17.8H804
	l3-24.5h4.6v2.5h0.1c1.4-1.8,3.6-2.9,5.9-3c3,0,4.5,1.9,4.5,5.7c0,0.8-0.1,1.6-0.1,2.3L819.7,775.6z"/>
<path class="st1" d="M835.8,757.8c-0.2-2.5-1.3-3-2.6-3c-1.5,0-2.4,1-2.4,2.7c0,3.6,7.3,3.8,7.3,10.1c0,4.8-3.4,8.4-7.8,8.4
	c-3.6,0-5.8-1.8-6.3-6l3.8-1.5c0.3,2.5,1.6,3.4,2.8,3.4c1.3,0,2.4-0.9,2.4-3c0-4-7.4-3.9-7.4-10.3c-0.2-4.2,3.1-7.8,7.3-8
	c0.2,0,0.4,0,0.6,0c3.5,0,5.5,2.1,6,6L835.8,757.8z"/>
<path class="st1" d="M850.5,759.7c0.9-6,3.5-8.9,7.4-8.9c1.6,0,3.1,0.6,4.1,1.8l0.4-1.5h4.8l-3,24.5h-4.6V773h-0.1
	c-1.4,1.8-3.6,2.9-5.8,3c-3,0-4.5-1.9-4.5-5.9c0-0.8,0-1.5,0.2-2.3L850.5,759.7z M859.7,768.9l1.7-12.9c-0.7-0.5-1.5-0.8-2.4-0.8
	c-1.7,0-2.7,1.2-3.1,4.4l-1.1,7.9c-0.1,0.5-0.1,0.9-0.1,1.4c0,1.7,0.7,2.1,1.7,2.1C857.7,770.9,858.9,770.1,859.7,768.9L859.7,768.9
	z"/>
<path class="st1" d="M884.8,775.6h-5.3l2.1-16.5c0.1-0.5,0.1-0.9,0.1-1.3c0-1.8-0.7-2.2-1.7-2.2c-1.4,0.2-2.7,1-3.4,2.2l-2.2,17.8
	h-5.3l3-24.5h4.6v2.5h0.1c1.4-1.8,3.5-2.9,5.8-3c3,0,4.5,1.9,4.5,5.7c0,0.8-0.1,1.6-0.2,2.3L884.8,775.6z"/>
<path class="st1" d="M908.3,744.2l-3.9,31.4h-4.6v-2.5h-0.1c-1.4,1.8-3.6,2.9-5.9,2.9c-3,0-4.5-1.9-4.5-5.9c0-0.8,0-1.5,0.1-2.3
	l1.2-8.2c0.9-6,3.4-8.9,7.4-8.9c1.4,0,2.8,0.5,3.8,1.5h0.1l1-8.1L908.3,744.2z M894.8,769c0,1.8,0.7,2.2,1.7,2.2
	c1.4-0.2,2.7-1,3.4-2.2l1.6-13c-0.7-0.5-1.5-0.8-2.4-0.8c-1.7,0-2.6,1.2-3.1,4.4l-1.2,8.1C894.8,768.1,894.8,768.6,894.8,769z"/>
<path class="st1" d="M916.9,780.5l3.6-29.5h4.6v2.5h0.1c1.4-1.8,3.6-2.9,5.9-3c3,0,4.5,1.9,4.5,5.7c0,0.8-0.1,1.6-0.2,2.3l-1.2,8.2
	c-0.9,6.1-3.5,9-7.3,9c-1.4,0.1-2.9-0.5-3.9-1.5h-0.1l-0.7,6.2L916.9,780.5z M925.1,757.5l-1.6,13c0.7,0.5,1.5,0.8,2.4,0.8
	c1.6,0,2.7-1.2,3.1-4.5l1.1-8.1c0.1-0.5,0.1-1,0.1-1.3c0-1.7-0.7-2.2-1.7-2.2C927.1,755.5,925.8,756.3,925.1,757.5L925.1,757.5z"/>
<path class="st1" d="M943.4,767.5c0,0.5-0.1,1-0.1,1.4c0,1.7,0.7,2.1,1.7,2.1c1.4-0.1,2.7-0.9,3.4-2.2l2.3-17.8h5.3l-3,24.5h-4.6
	V773h-0.1c-1.4,1.8-3.6,2.9-5.9,2.9c-3,0-4.5-1.9-4.5-5.8c0-0.8,0-1.5,0.1-2.3l2.2-16.8h5.3L943.4,767.5z"/>
<path class="st1" d="M967.3,744.2l-3.9,31.4h-5.3l3.8-31.4H967.3z"/>
<path class="st1" d="M980.2,757.8c-0.2-2.5-1.3-3-2.6-3c-1.5,0-2.4,1-2.4,2.7c0,3.6,7.3,3.8,7.3,10.1c0,4.8-3.4,8.4-7.8,8.4
	c-3.6,0-5.8-1.8-6.3-6l3.8-1.5c0.3,2.5,1.6,3.4,2.8,3.4s2.4-0.9,2.4-3c0-4-7.4-3.9-7.4-10.3c-0.2-4.2,3.1-7.8,7.3-8
	c0.2,0,0.4,0,0.6,0c3.5,0,5.5,2.1,6,6L980.2,757.8z"/>
<path class="st1" d="M991.4,764.2l-0.4,3.4c-0.1,0.4-0.1,0.7-0.1,1.1c0,2,0.9,2.8,2.5,2.8s2.5-0.9,3.4-3.4l3.9,1.2
	c-1.6,4.5-4.2,6.6-8.4,6.6c-4.5,0-6.8-2.9-6.8-6.9c0-0.4,0-0.9,0.1-1.3l1.2-9c0.6-4.5,3.5-8.2,8.6-8.2c4.4,0,6.5,3,6.5,7
	c0,0.5,0,1-0.1,1.4l-0.7,5.2L991.4,764.2z M991.9,760.7h5l0.3-2.2c0-0.4,0-0.7,0-1.1c0-1.8-0.7-2.5-2.1-2.5c-1.7,0-2.6,1.1-3,3.5
	L991.9,760.7z"/>
<path class="st1" d="M1015.5,757.8c-0.2-2.5-1.3-3-2.6-3c-1.5,0-2.4,1-2.4,2.7c0,3.6,7.3,3.8,7.3,10.1c0,4.8-3.4,8.4-7.8,8.4
	c-3.6,0-5.8-1.8-6.3-6l3.8-1.5c0.3,2.5,1.6,3.4,2.8,3.4s2.4-0.9,2.4-3c0-4-7.4-3.9-7.4-10.3c-0.2-4.2,3.1-7.8,7.3-8
	c0.2,0,0.4,0,0.6,0c3.5,0,5.5,2.1,6,6L1015.5,757.8z"/>
</svg>
