<svg enable-background="new 0 0 1219.4 738.8" viewBox="0 0 1219.4 738.8" xmlns="http://www.w3.org/2000/svg"><path d="m25 417.8c-.7.1-1.3-.4-1.4-1 0-.1 0-.2 0-.4v-101.2c-.1-.7.4-1.4 1.1-1.5h.3c2.8-.1 5.8-.3 8.9-.4s6.1-.2 9.1-.3 5.8-.1 8.6-.2 5.2-.1 7.4-.1c6.4 0 12 .2 16.8.7 4.2.3 8.3 1.1 12.4 2.1 3 .8 5.9 2.1 8.6 3.8 2.2 1.5 4 3.5 5.4 5.8 1.4 2.5 2.3 5.2 2.8 8 .5 3.4.8 6.9.8 10.3v8.4c0 3.5-.2 7-.8 10.4-.4 2.8-1.4 5.5-2.8 8-1.3 2.3-3.2 4.3-5.4 5.8-2.6 1.7-5.5 3-8.6 3.8-4 1.1-8.2 1.8-12.4 2.1-4.8.4-10.4.6-16.8.6h-5.6c-1 0-1.9 0-2.8 0s-1.6 0-2.2-.1v34c.1.7-.4 1.3-1.1 1.4-.1 0-.2 0-.3 0zm34.3-83.1h-2.7l-2.9.1c-1 0-1.9.1-2.9.2s-1.8.1-2.6.2v25.1c.8.1 1.7.2 2.6.2s1.9.1 2.9.1l2.9.1h2.7c4.4 0 8-.1 10.8-.3 2.2-.1 4.4-.6 6.5-1.5 1.4-.6 2.6-1.8 3.2-3.2.6-1.8.9-3.7.8-5.6v-4.5c.1-1.9-.2-3.8-.8-5.6-.6-1.5-1.8-2.6-3.2-3.2-2.1-.9-4.3-1.4-6.5-1.5-2.8-.5-6.4-.6-10.8-.6z" fill="#fff"/><path d="m207.5 417.8c-.4 0-.8-.1-1.2-.2-.4-.3-.6-.6-.8-1l-16.1-34.7h-2c-1.8 0-3.7 0-5.5-.1s-3.9-.2-6.2-.3v34.9c.1.7-.4 1.3-1.1 1.4-.1 0-.2 0-.3 0h-21.9c-.7.1-1.3-.4-1.4-1 0-.1 0-.2 0-.4v-101.1c-.1-.7.4-1.4 1.1-1.5h.3c5.7-.4 11.3-.6 16.6-.8 5.4-.2 10.6-.2 15.8-.2 6.6 0 12.3.2 17.3.6 4.3.3 8.6 1 12.8 2 3.1.8 6.1 2 8.9 3.7 2.3 1.4 4.2 3.3 5.6 5.6 1.5 2.4 2.4 5.1 2.9 7.8.6 3.4.9 6.8.8 10.2v9.4c.1 4.5-.4 9-1.6 13.4-1 3.5-3 6.7-5.8 9-2.7 2.3-6.9 4-12.4 5.2.8 1.3 1.6 2.6 2.5 4s1.8 3 2.7 4.8l14.9 27.9c.4.8.2 1.3-.8 1.3zm-21.3-83.1h-2.6l-2.8.1c-.9 0-1.9.1-2.8.2s-1.8.1-2.5.2v24.4c3 .3 6.8.4 11.3.4 4.4 0 7.9-.1 10.7-.3 2.2-.1 4.4-.6 6.5-1.4 1.4-.6 2.6-1.7 3.2-3.1.7-1.7 1-3.6.9-5.4v-4.7c.1-1.8-.2-3.7-.8-5.4-.6-1.4-1.8-2.5-3.2-3.1-2.1-.8-4.4-1.3-6.7-1.4-2.8-.4-6.5-.5-11.2-.5z" fill="#fff"/><path d="m321.1 420c-6.4.1-12.7-.7-18.8-2.4-5.3-1.5-10.1-4.2-14-8.1-4.1-4.2-7-9.4-8.7-15-2-6.2-3-14-3-23.3v-141c0-9.2 1-16.9 3-23.1 1.6-5.6 4.6-10.8 8.7-15 3.9-3.8 8.7-6.6 14-8.1 6.1-1.7 12.5-2.5 18.8-2.4 6.4-.1 12.8.7 18.9 2.4 5.3 1.5 10.1 4.2 14 8.1 4.1 4.2 7 9.4 8.7 15 2 6.3 3 14 3 23.2v141.1c0 9.3-1 17-3 23.2-1.6 5.6-4.6 10.8-8.7 15-3.9 3.8-8.7 6.6-14 8.1-6.1 1.6-12.5 2.4-18.9 2.3zm0-213.9c-2.9 0-5.8.3-8.6 1.2-2.4.7-4.5 2.1-6.2 3.9-1.8 2.1-3.1 4.5-3.7 7.2-.9 3.6-1.3 7.4-1.2 11.1v142.5c-.1 3.8.3 7.5 1.2 11.2.7 2.7 1.9 5.2 3.7 7.2 1.7 1.8 3.8 3.2 6.2 3.9 2.8.8 5.7 1.2 8.6 1.2s5.8-.3 8.7-1.2c2.4-.7 4.5-2.1 6.2-3.9 1.8-2.1 3.1-4.6 3.8-7.3.9-3.7 1.3-7.4 1.3-11.2v-142.3c.1-3.7-.3-7.5-1.3-11.1-.7-2.7-2-5.2-3.8-7.2-1.7-1.8-3.8-3.2-6.2-4-2.8-.9-5.7-1.3-8.7-1.2z" fill="#fff"/><path d="m468.7 289c-.4 0-.8-.1-1.2-.2-.4-.2-.6-.6-.8-1l-16.1-34.6h-2c-1.8 0-3.7 0-5.5-.1s-3.9-.2-6.2-.3v34.9c.1.7-.4 1.3-1.1 1.4-.1 0-.2 0-.3 0h-22c-.7.1-1.3-.4-1.4-1.1 0-.1 0-.2 0-.4v-101c-.1-.7.4-1.4 1.1-1.5h.3c5.7-.4 11.3-.6 16.6-.8s10.6-.2 15.8-.2c6.6 0 12.3.2 17.3.6 4.3.3 8.6 1 12.8 2 3.1.8 6.1 2 8.9 3.7 2.3 1.4 4.2 3.3 5.6 5.6 1.4 2.4 2.4 5.1 2.9 7.8.6 3.4.9 6.8.8 10.2v9.4c.1 4.5-.4 9-1.6 13.4-1 3.5-3 6.7-5.8 9-2.7 2.3-6.9 4-12.4 5.2.8 1.3 1.6 2.6 2.5 4s1.8 3 2.7 4.8l14.9 27.9c.4.9.2 1.3-.8 1.3zm-21.2-83.1h-2.5l-2.8.1c-.9 0-1.9.1-2.8.1s-1.8.1-2.5.2v24.5c3 .3 6.8.4 11.3.4 4.4 0 7.9-.1 10.7-.3 2.2-.1 4.4-.6 6.5-1.4 1.4-.6 2.6-1.7 3.2-3.1.7-1.7 1-3.6.9-5.4v-4.7c.1-1.8-.2-3.7-.8-5.4-.6-1.4-1.8-2.5-3.2-3.1-2.1-.8-4.4-1.3-6.7-1.4-2.9-.4-6.7-.5-11.3-.5z" fill="#fff"/><path d="m581.9 250.7c-.7.1-1.4-.5-1.4-1.2 0-.1 0-.2 0-.3v-17c-.1-.7.4-1.3 1.1-1.4h.3 35c.7-.1 1.3.4 1.4 1.1v.3 52.1c0 .4-.1.8-.3 1.2-.3.3-.6.6-1.1.7-2.6 1-5.3 1.8-8.1 2.5-2.7.7-5.5 1.2-8.2 1.5-2.7.4-5.5.6-8.1.8s-5.2.2-7.6.2c-6.8.1-13.7-.7-20.3-2.4-5.5-1.4-10.6-4.2-14.8-8.1-4.2-4.2-7.3-9.3-9-15-2.1-6.3-3.1-14.1-3.1-23.4v-10.8c0-9.2 1-16.9 3.1-23.1 1.7-5.7 4.8-10.8 9-15 4.2-3.9 9.3-6.7 14.8-8.1 6.6-1.7 13.4-2.5 20.3-2.4 2.3 0 4.7.1 7.2.2s5 .4 7.5.7c2.4.3 4.8.7 6.9 1.2 2 .4 3.9 1 5.8 1.6.4.1.7.3 1 .7.2.4.2.8.1 1.2l-3.2 19.1c0 .7-.6 1.3-1.3 1.3-.1 0-.2 0-.4-.1-7.5-1.3-15.2-1.9-22.8-1.9-3.5-.1-7 .3-10.5 1.2-2.7.7-5.2 2-7.3 3.9-2 2-3.5 4.5-4.3 7.3-1 3.7-1.5 7.6-1.4 11.4v12.2c-.1 3.9.3 7.7 1.3 11.5.7 2.7 2 5.3 4 7.3 1.9 1.9 4.2 3.2 6.8 3.9 3.2.8 6.6 1.2 9.9 1.1h4.5c1.5 0 3 0 4.5-.1v-15.4z" fill="#fff"/><path d="m657.3 289c-.9 0-1.3-.4-1-1.3l30.7-101.2c.1-.4.3-.8.7-1.1.4-.2.8-.3 1.2-.3h31.1c.4 0 .8.1 1.2.3.3.3.6.6.7 1.1l30.8 101.2c.3.9 0 1.3-1 1.3h-24.3c-.8.1-1.6-.5-1.8-1.3l-4.2-15.6h-34l-4.2 15.6c-.2.8-.9 1.4-1.8 1.3zm47.1-79.9-11.1 41.4h22.4z" fill="#fff"/><path d="m790 289c-.7.1-1.3-.4-1.4-1.1 0-.1 0-.2 0-.3v-101c-.1-.7.4-1.3 1.1-1.4h.4 23.8c.9-.1 1.7.4 2.1 1.2l30.9 52.9c.5.8.9 1.7 1.3 2.5s.7 1.5 1 2.1.5 1.1.6 1.5c.1.2.1.4.2.6l.1-59.4c-.1-.7.4-1.3 1.1-1.4h.4 21.8c.7-.1 1.3.4 1.4 1v.4 101.1c.1.7-.4 1.3-1.1 1.4-.1 0-.2 0-.3 0h-23.8c-.4 0-.9-.1-1.2-.2-.4-.2-.7-.6-.9-1l-30.7-52.6c-1-1.6-1.8-3.3-2.6-5.1-.2-.7-.5-1.3-.9-1.9v59.4c.1.7-.4 1.3-1 1.4-.1 0-.2 0-.4 0z" fill="#fff"/><path d="m922.4 289c-.7.1-1.3-.4-1.4-1.1 0-.1 0-.2 0-.4v-100.9c-.1-.7.4-1.3 1-1.4h.4 21.9c.7-.1 1.3.4 1.4 1v.4 101.1c.1.7-.4 1.3-1.1 1.4-.1 0-.2 0-.3 0h-21.9z" fill="#fff"/><path d="m1034.3 291.2c-6.6.1-13.2-.7-19.6-2.4-5.5-1.4-10.5-4.2-14.6-8.1-4.2-4.2-7.3-9.3-9.1-15-2.1-6.2-3.1-14-3.1-23.3v-10.8c0-9.2 1-16.9 3.1-23.1 1.8-5.7 4.9-10.8 9.1-15 4.1-3.9 9.1-6.6 14.6-8.1 6.4-1.7 13-2.5 19.6-2.4 2.5 0 5.1.1 7.6.2 2.5.2 4.9.4 7.2.7s4.5.7 6.5 1.2c1.9.4 3.7 1 5.5 1.6.4.1.7.3 1 .7.2.4.2.8.1 1.2l-3.2 19.1c0 .7-.6 1.2-1.2 1.2-.1 0-.3 0-.4-.1-3.6-.8-7.3-1.4-11.1-1.7-3.7-.3-7.4-.5-11.1-.5-3.3-.1-6.5.3-9.7 1.2-2.7.7-5.1 2.1-7.1 4-2 2.1-3.5 4.6-4.3 7.4-1 3.7-1.5 7.6-1.4 11.5v12.2c-.1 3.9.4 7.8 1.5 11.5.8 2.8 2.3 5.4 4.3 7.5 1.9 1.9 4.4 3.3 7 4 3.2.8 6.5 1.3 9.8 1.2 3.9 0 7.8-.1 11.6-.4s7.7-.6 11.5-1c.7-.2 1.4.2 1.6.8 0 .1.1.2.1.4l2.8 19.6c.2.7-.2 1.4-.9 1.6-.1 0-.2 0-.2 0-1.7.4-3.5.8-5.6 1.1s-4.3.6-6.7.8-4.8.4-7.4.5-5.2.7-7.8.7z" fill="#fff"/><path d="m1093.4 289c-.9 0-1.3-.4-1-1.3l30.7-101.2c.1-.4.3-.8.7-1.1.4-.2.8-.3 1.2-.3h31.1c.4 0 .8.1 1.2.3.3.3.6.6.7 1.1l30.8 101.2c.3.9 0 1.3-1 1.3h-24.3c-.8.1-1.6-.5-1.8-1.3l-4.2-15.6h-34l-4.2 15.6c-.2.8-.9 1.4-1.8 1.3zm47-79.9-11.1 41.4h22.4z" fill="#fff"/><path d="m968.8 83.1c0-42-35.4-56.6-35.4-56.6v113.3s35.4-14.6 35.4-56.7z" fill="#3aaa35"/><path d="m933.4 139.8v-113.3s-35.4 14.6-35.4 56.6 35.4 56.7 35.4 56.7z" fill="#95c11f"/><g fill="#fff"><path d="m52 601.2c0 12-5.2 18.7-14.5 18.7h-6.4v21.1h-10.8v-58.9h16.6c9.7 0 15.1 6.7 15.1 19.1zm-20.9 10h5.5c3.3 0 4.8-2.6 4.8-9.9 0-7.5-1.4-9.7-4.8-9.7h-5.5z"/><path d="m72.4 617.1h-3.8v23.8h-10.8v-58.9h16c10.5 0 15.1 6.1 15.1 16.9 0 8.2-2.3 13.2-7 15.4l9.4 26.5h-11.3zm-3.8-8.6h4.6c4 0 5.2-2.2 5.2-8.5 0-6.8-1.5-8.5-5.2-8.5h-4.6z"/><path d="m128.3 599.9v23.2c0 11.7-5.8 18.6-16.8 18.6-11.1 0-16.8-6.9-16.8-18.6v-23.2c0-11.7 5.8-18.6 16.8-18.6s16.8 6.9 16.8 18.6zm-10.8 0c0-6.8-1.9-9.2-6.1-9.2s-6.1 2.3-6.1 9.2v23.2c0 6.9 1.9 9.4 6.1 9.4s6.1-2.4 6.1-9.4z"/><path d="m140.9 641h-10.7l13.2-58.9h12.6l13.2 58.9h-10.9l-2.3-13h-12.8zm3.9-21.3h9.7l-4.8-26.5h-.2z"/><path d="m201.6 595.1-8.2 2.6c-.7-4.8-2.5-6.8-5.7-6.8-4 0-5.8 2.8-5.8 8.6v25.1c0 4.9 1.8 8 5.8 8 3.2 0 4.9-1.9 5.8-7.3l8.2 2.4c-1.5 9.8-6.5 14-14.9 14-9.6 0-15.6-6.7-15.6-17.1v-25.2c0-11.3 6.1-18.2 15.7-18.2 7.9.1 13.3 5.7 14.7 13.9z"/><path d="m234.8 582.1v9.9h-10.2v49h-10.8v-49h-10.1v-9.9z"/><path d="m251.1 582.1v58.9h-10.7v-58.9z"/><path d="m281.3 641h-11.5l-13.9-58.9h11.5l8.1 44.4h.2l8.1-44.4h11.6z"/><path d="m326.8 582.1v9.8h-16.5v14.3h12.4v8.6h-12.4v16.4h17.1v9.7h-27.9v-58.9h27.3z"/><path d="m333.1 631.5h8.5v9.4h-8.5z"/><path d="m395.1 601.2c0 12-5.2 18.7-14.5 18.7h-6.4v21.1h-10.8v-58.9h16.6c9.7 0 15.1 6.7 15.1 19.1zm-20.9 10h5.5c3.3 0 4.8-2.6 4.8-9.9 0-7.5-1.4-9.7-4.8-9.7h-5.5z"/><path d="m415.4 617.1h-3.8v23.8h-10.8v-58.9h16c10.5 0 15.1 6.1 15.1 16.9 0 8.2-2.3 13.2-7 15.4l9.5 26.5h-11.3zm-3.7-8.6h4.6c4 0 5.2-2.2 5.2-8.5 0-6.8-1.5-8.5-5.2-8.5h-4.6z"/><path d="m471.3 599.9v23.2c0 11.7-5.8 18.6-16.8 18.6s-16.8-6.9-16.8-18.6v-23.2c0-11.7 5.8-18.6 16.8-18.6s16.8 6.9 16.8 18.6zm-10.7 0c0-6.8-1.9-9.2-6.1-9.2s-6.1 2.3-6.1 9.2v23.2c0 6.9 1.9 9.4 6.1 9.4s6.1-2.4 6.1-9.4z"/><path d="m505.7 582.1v9.8h-16.7v15.1h14.4v9.2h-14.4v24.7h-10.8v-58.9h27.5z"/><path d="m538.8 582.1v9.8h-16.4v14.3h12.4v8.6h-12.4v16.4h17.1v9.7h-27.9v-58.9h27.2z"/><path d="m573 594-7.7 3.2c-1.2-5-3.6-6.8-6.9-6.8-3.4 0-4.8 2-4.8 5.9 0 10.3 19.5 10.9 19.5 28.9 0 10.6-5.9 16.6-15.3 16.6-7.6 0-14.1-5.1-15.6-14.2l8.3-2.6c1.3 5.8 4.2 7.7 7.3 7.7 3.6 0 5.1-1.9 5.1-5.9 0-12-20-12.5-20-29.9 0-8.7 5.4-15.6 14.6-15.6 8.5 0 13 4.8 15.5 12.7z"/><path d="m606.4 594-7.7 3.2c-1.2-5-3.6-6.8-6.9-6.8-3.4 0-4.8 2-4.8 5.9 0 10.3 19.5 10.9 19.5 28.9 0 10.6-5.9 16.6-15.3 16.6-7.6 0-14.1-5.1-15.6-14.2l8.3-2.6c1.3 5.8 4.2 7.7 7.3 7.7 3.6 0 5.1-1.9 5.1-5.9 0-12-20-12.5-20-29.9 0-8.7 5.4-15.6 14.6-15.6 8.6 0 13.1 4.8 15.5 12.7z"/><path d="m623.2 582.1v58.9h-10.7v-58.9z"/><path d="m664.5 599.9v23.2c0 11.7-5.8 18.6-16.8 18.6s-16.8-6.9-16.8-18.6v-23.2c0-11.7 5.8-18.6 16.8-18.6s16.8 6.9 16.8 18.6zm-10.7 0c0-6.8-1.9-9.2-6.1-9.2s-6.1 2.3-6.1 9.2v23.2c0 6.9 1.9 9.4 6.1 9.4s6.1-2.4 6.1-9.4z"/><path d="m679.2 582.1 15.3 32.7h.2v-32.7h9.4v58.9h-7.3l-15.8-33.9h-.2v33.9h-9.4v-58.9z"/><path d="m719.2 641h-10.7l13.2-58.9h12.6l13.2 58.9h-10.9l-2.3-13h-12.8zm3.8-21.3h9.7l-4.8-26.5h-.2z"/><path d="m762.5 582.1v48.9h15.7v10h-26.2v-58.9z"/><path d="m783.5 631.5h8.5v9.4h-8.5z"/><path d="m845.5 601.2c0 12-5.2 18.7-14.5 18.7h-6.4v21.1h-10.8v-58.9h16.6c9.8 0 15.1 6.7 15.1 19.1zm-20.7 10h5.5c3.3 0 4.8-2.6 4.8-9.9 0-7.5-1.4-9.7-4.8-9.7h-5.5z"/><path d="m866 617.1h-3.8v23.8h-10.8v-58.9h16c10.5 0 15.1 6.1 15.1 16.9 0 8.2-2.3 13.2-7 15.4l9.4 26.5h-11.3zm-3.8-8.6h4.6c4 0 5.2-2.2 5.2-8.5 0-6.8-1.5-8.5-5.2-8.5h-4.6z"/><path d="m921.9 599.9v23.2c0 11.7-5.8 18.6-16.8 18.6s-16.8-6.9-16.8-18.6v-23.2c0-11.7 5.8-18.6 16.8-18.6s16.8 6.9 16.8 18.6zm-10.7 0c0-6.8-1.9-9.2-6.1-9.2s-6.1 2.3-6.1 9.2v23.2c0 6.9 1.9 9.4 6.1 9.4s6.1-2.4 6.1-9.4z"/><path d="m960.5 595-8.1 2.6c-1.5-5.1-3.7-6.9-6.9-6.9-5 0-7.3 3.1-7.3 10.3v21.9c0 6.5 2.5 9.3 7.1 9.3 2.5 0 4.2-.8 5.8-3.3v-10.1h-5v-7.6h14.3v30h-8.7v-3.1c-2.5 2.5-5.8 3.9-9.5 3.9-8.8 0-14.8-6-14.8-18.9v-22c0-11.8 5.5-19.6 17.2-19.6 8.3-.3 14.3 4.6 15.9 13.5z"/><path d="m982.2 617.1h-3.8v23.8h-10.8v-58.9h16c10.5 0 15.1 6.1 15.1 16.9 0 8.2-2.3 13.2-7 15.4l9.4 26.5h-11.3zm-3.8-8.6h4.6c4 0 5.2-2.2 5.2-8.5 0-6.8-1.5-8.5-5.2-8.5h-4.6z"/><path d="m1032.8 582.1v9.8h-16.5v14.3h12.4v8.6h-12.4v16.4h17.1v9.7h-27.9v-58.9h27.3z"/><path d="m1067 594-7.7 3.2c-1.2-5-3.6-6.8-6.9-6.8-3.4 0-4.8 2-4.8 5.9 0 10.3 19.5 10.9 19.5 28.9 0 10.6-5.9 16.6-15.3 16.6-7.6 0-14.1-5.1-15.6-14.2l8.3-2.6c1.3 5.8 4.2 7.7 7.3 7.7 3.6 0 5.1-1.9 5.1-5.9 0-12-20-12.5-20-29.9 0-8.7 5.4-15.6 14.6-15.6 8.6 0 13.1 4.8 15.5 12.7z"/><path d="m1100.4 594-7.7 3.2c-1.2-5-3.6-6.8-6.9-6.8-3.4 0-4.8 2-4.8 5.9 0 10.3 19.5 10.9 19.5 28.9 0 10.6-5.9 16.6-15.3 16.6-7.6 0-14.1-5.1-15.6-14.2l8.3-2.6c1.3 5.8 4.2 7.7 7.3 7.7 3.6 0 5.1-1.9 5.1-5.9 0-12-20-12.5-20-29.9 0-8.7 5.4-15.6 14.6-15.6 8.6 0 13.1 4.8 15.5 12.7z"/><path d="m1117.3 582.1v58.9h-10.7v-58.9z"/><path d="m1147.8 641h-11.5l-14-58.9h11.5l8.1 44.4h.2l8.1-44.4h11.6z"/><path d="m1193.1 582.1v9.8h-16.5v14.3h12.4v8.6h-12.4v16.4h17.1v9.7h-27.9v-58.9h27.3z"/><path d="m1199.4 631.5h8.5v9.4h-8.5z"/></g></svg>