<?xml version="1.0" encoding="utf-8"?>
<!-- Generator: Adobe Illustrator 25.2.1, SVG Export Plug-In . SVG Version: 6.00 Build 0)  -->
<svg version="1.1" id="Guides" xmlns="http://www.w3.org/2000/svg" xmlns:xlink="http://www.w3.org/1999/xlink" x="0px" y="0px"
	 viewBox="0 0 1219.4 919.3" style="enable-background:new 0 0 1219.4 919.3;" xml:space="preserve">
<style type="text/css">
	.st0{fill:#FFFFFF;}
	.st1{fill:#3AAA35;}
	.st2{fill:#95C11F;}
</style>
<path class="st0" d="M25,417.8c-0.7,0.1-1.3-0.4-1.4-1c0-0.1,0-0.2,0-0.4V315.2c-0.1-0.7,0.4-1.4,1.1-1.5c0.1,0,0.2,0,0.3,0
	c2.8-0.1,5.8-0.3,8.9-0.4s6.1-0.2,9.1-0.3s5.8-0.1,8.6-0.2s5.2-0.1,7.4-0.1c6.4,0,12,0.2,16.8,0.7c4.2,0.3,8.3,1.1,12.4,2.1
	c3,0.8,5.9,2.1,8.6,3.8c2.2,1.5,4,3.5,5.4,5.8c1.4,2.5,2.3,5.2,2.8,8c0.5,3.4,0.8,6.9,0.8,10.3v8.4c0,3.5-0.2,7-0.8,10.4
	c-0.4,2.8-1.4,5.5-2.8,8c-1.3,2.3-3.2,4.3-5.4,5.8c-2.6,1.7-5.5,3-8.6,3.8c-4,1.1-8.2,1.8-12.4,2.1c-4.8,0.4-10.4,0.6-16.8,0.6h-5.6
	c-1,0-1.9,0-2.8,0s-1.6,0-2.2-0.1v34c0.1,0.7-0.4,1.3-1.1,1.4c-0.1,0-0.2,0-0.3,0L25,417.8z M59.3,334.7h-2.7l-2.9,0.1
	c-1,0-1.9,0.1-2.9,0.2s-1.8,0.1-2.6,0.2v25.1c0.8,0.1,1.7,0.2,2.6,0.2s1.9,0.1,2.9,0.1l2.9,0.1c1,0,1.8,0,2.7,0
	c4.4,0,8-0.1,10.8-0.3c2.2-0.1,4.4-0.6,6.5-1.5c1.4-0.6,2.6-1.8,3.2-3.2c0.6-1.8,0.9-3.7,0.8-5.6v-4.5c0.1-1.9-0.2-3.8-0.8-5.6
	c-0.6-1.5-1.8-2.6-3.2-3.2c-2.1-0.9-4.3-1.4-6.5-1.5C67.3,334.8,63.7,334.7,59.3,334.7L59.3,334.7z"/>
<path class="st0" d="M207.5,417.8c-0.4,0-0.8-0.1-1.2-0.2c-0.4-0.3-0.6-0.6-0.8-1l-16.1-34.7h-2c-1.8,0-3.7,0-5.5-0.1
	s-3.9-0.2-6.2-0.3v34.9c0.1,0.7-0.4,1.3-1.1,1.4c-0.1,0-0.2,0-0.3,0h-21.9c-0.7,0.1-1.3-0.4-1.4-1c0-0.1,0-0.2,0-0.4V315.3
	c-0.1-0.7,0.4-1.4,1.1-1.5c0.1,0,0.2,0,0.3,0c5.7-0.4,11.3-0.6,16.6-0.8c5.4-0.2,10.6-0.2,15.8-0.2c6.6,0,12.3,0.2,17.3,0.6
	c4.3,0.3,8.6,1,12.8,2c3.1,0.8,6.1,2,8.9,3.7c2.3,1.4,4.2,3.3,5.6,5.6c1.5,2.4,2.4,5.1,2.9,7.8c0.6,3.4,0.9,6.8,0.8,10.2v9.4
	c0.1,4.5-0.4,9-1.6,13.4c-1,3.5-3,6.7-5.8,9c-2.7,2.3-6.9,4-12.4,5.2c0.8,1.3,1.6,2.6,2.5,4s1.8,3,2.7,4.8l14.9,27.9
	c0.4,0.8,0.2,1.3-0.8,1.3L207.5,417.8z M186.2,334.7h-2.6l-2.8,0.1c-0.9,0-1.9,0.1-2.8,0.2s-1.8,0.1-2.5,0.2v24.4
	c3,0.3,6.8,0.4,11.3,0.4c4.4,0,7.9-0.1,10.7-0.3c2.2-0.1,4.4-0.6,6.5-1.4c1.4-0.6,2.6-1.7,3.2-3.1c0.7-1.7,1-3.6,0.9-5.4v-4.7
	c0.1-1.8-0.2-3.7-0.8-5.4c-0.6-1.4-1.8-2.5-3.2-3.1c-2.1-0.8-4.4-1.3-6.7-1.4C194.6,334.8,190.9,334.7,186.2,334.7z"/>
<path class="st0" d="M321.1,420c-6.4,0.1-12.7-0.7-18.8-2.4c-5.3-1.5-10.1-4.2-14-8.1c-4.1-4.2-7-9.4-8.7-15c-2-6.2-3-14-3-23.3
	v-141c0-9.2,1-16.9,3-23.1c1.6-5.6,4.6-10.8,8.7-15c3.9-3.8,8.7-6.6,14-8.1c6.1-1.7,12.5-2.5,18.8-2.4c6.4-0.1,12.8,0.7,18.9,2.4
	c5.3,1.5,10.1,4.2,14,8.1c4.1,4.2,7,9.4,8.7,15c2,6.3,3,14,3,23.2v141.1c0,9.3-1,17-3,23.2c-1.6,5.6-4.6,10.8-8.7,15
	c-3.9,3.8-8.7,6.6-14,8.1C333.9,419.3,327.5,420.1,321.1,420z M321.1,206.1c-2.9,0-5.8,0.3-8.6,1.2c-2.4,0.7-4.5,2.1-6.2,3.9
	c-1.8,2.1-3.1,4.5-3.7,7.2c-0.9,3.6-1.3,7.4-1.2,11.1V372c-0.1,3.8,0.3,7.5,1.2,11.2c0.7,2.7,1.9,5.2,3.7,7.2
	c1.7,1.8,3.8,3.2,6.2,3.9c2.8,0.8,5.7,1.2,8.6,1.2s5.8-0.3,8.7-1.2c2.4-0.7,4.5-2.1,6.2-3.9c1.8-2.1,3.1-4.6,3.8-7.3
	c0.9-3.7,1.3-7.4,1.3-11.2V229.6c0.1-3.7-0.3-7.5-1.3-11.1c-0.7-2.7-2-5.2-3.8-7.2c-1.7-1.8-3.8-3.2-6.2-4
	C327,206.4,324.1,206,321.1,206.1L321.1,206.1z"/>
<path class="st0" d="M468.7,289c-0.4,0-0.8-0.1-1.2-0.2c-0.4-0.2-0.6-0.6-0.8-1l-16.1-34.6h-2c-1.8,0-3.7,0-5.5-0.1
	s-3.9-0.2-6.2-0.3v34.9c0.1,0.7-0.4,1.3-1.1,1.4c-0.1,0-0.2,0-0.3,0h-22c-0.7,0.1-1.3-0.4-1.4-1.1c0-0.1,0-0.2,0-0.4v-101
	c-0.1-0.7,0.4-1.4,1.1-1.5c0.1,0,0.2,0,0.3,0c5.7-0.4,11.3-0.6,16.6-0.8s10.6-0.2,15.8-0.2c6.6,0,12.3,0.2,17.3,0.6
	c4.3,0.3,8.6,1,12.8,2c3.1,0.8,6.1,2,8.9,3.7c2.3,1.4,4.2,3.3,5.6,5.6c1.4,2.4,2.4,5.1,2.9,7.8c0.6,3.4,0.9,6.8,0.8,10.2v9.4
	c0.1,4.5-0.4,9-1.6,13.4c-1,3.5-3,6.7-5.8,9c-2.7,2.3-6.9,4-12.4,5.2c0.8,1.3,1.6,2.6,2.5,4s1.8,3,2.7,4.8l14.9,27.9
	c0.4,0.9,0.2,1.3-0.8,1.3L468.7,289z M447.5,205.9H445l-2.8,0.1c-0.9,0-1.9,0.1-2.8,0.1s-1.8,0.1-2.5,0.2v24.5
	c3,0.3,6.8,0.4,11.3,0.4c4.4,0,7.9-0.1,10.7-0.3c2.2-0.1,4.4-0.6,6.5-1.4c1.4-0.6,2.6-1.7,3.2-3.1c0.7-1.7,1-3.6,0.9-5.4v-4.7
	c0.1-1.8-0.2-3.7-0.8-5.4c-0.6-1.4-1.8-2.5-3.2-3.1c-2.1-0.8-4.4-1.3-6.7-1.4C455.9,206,452.1,205.9,447.5,205.9z"/>
<path class="st0" d="M581.9,250.7c-0.7,0.1-1.4-0.5-1.4-1.2c0-0.1,0-0.2,0-0.3v-17c-0.1-0.7,0.4-1.3,1.1-1.4c0.1,0,0.2,0,0.3,0h35
	c0.7-0.1,1.3,0.4,1.4,1.1c0,0.1,0,0.2,0,0.3v52.1c0,0.4-0.1,0.8-0.3,1.2c-0.3,0.3-0.6,0.6-1.1,0.7c-2.6,1-5.3,1.8-8.1,2.5
	c-2.7,0.7-5.5,1.2-8.2,1.5c-2.7,0.4-5.5,0.6-8.1,0.8s-5.2,0.2-7.6,0.2c-6.8,0.1-13.7-0.7-20.3-2.4c-5.5-1.4-10.6-4.2-14.8-8.1
	c-4.2-4.2-7.3-9.3-9-15c-2.1-6.3-3.1-14.1-3.1-23.4v-10.8c0-9.2,1-16.9,3.1-23.1c1.7-5.7,4.8-10.8,9-15c4.2-3.9,9.3-6.7,14.8-8.1
	c6.6-1.7,13.4-2.5,20.3-2.4c2.3,0,4.7,0.1,7.2,0.2s5,0.4,7.5,0.7c2.4,0.3,4.8,0.7,6.9,1.2c2,0.4,3.9,1,5.8,1.6
	c0.4,0.1,0.7,0.3,1,0.7c0.2,0.4,0.2,0.8,0.1,1.2l-3.2,19.1c0,0.7-0.6,1.3-1.3,1.3c-0.1,0-0.2,0-0.4-0.1c-7.5-1.3-15.2-1.9-22.8-1.9
	c-3.5-0.1-7,0.3-10.5,1.2c-2.7,0.7-5.2,2-7.3,3.9c-2,2-3.5,4.5-4.3,7.3c-1,3.7-1.5,7.6-1.4,11.4v12.2c-0.1,3.9,0.3,7.7,1.3,11.5
	c0.7,2.7,2,5.3,4,7.3c1.9,1.9,4.2,3.2,6.8,3.9c3.2,0.8,6.6,1.2,9.9,1.1h4.5c1.5,0,3,0,4.5-0.1v-15.4L581.9,250.7z"/>
<path class="st0" d="M657.3,289c-0.9,0-1.3-0.4-1-1.3L687,186.5c0.1-0.4,0.3-0.8,0.7-1.1c0.4-0.2,0.8-0.3,1.2-0.3H720
	c0.4,0,0.8,0.1,1.2,0.3c0.3,0.3,0.6,0.6,0.7,1.1l30.8,101.2c0.3,0.9,0,1.3-1,1.3h-24.3c-0.8,0.1-1.6-0.5-1.8-1.3l-4.2-15.6h-34
	l-4.2,15.6c-0.2,0.8-0.9,1.4-1.8,1.3H657.3z M704.4,209.1l-11.1,41.4h22.4L704.4,209.1z"/>
<path class="st0" d="M790,289c-0.7,0.1-1.3-0.4-1.4-1.1c0-0.1,0-0.2,0-0.3v-101c-0.1-0.7,0.4-1.3,1.1-1.4c0.1,0,0.2,0,0.4,0h23.8
	c0.9-0.1,1.7,0.4,2.1,1.2l30.9,52.9c0.5,0.8,0.9,1.7,1.3,2.5c0.4,0.8,0.7,1.5,1,2.1s0.5,1.1,0.6,1.5c0.1,0.2,0.1,0.4,0.2,0.6
	l0.1-59.4c-0.1-0.7,0.4-1.3,1.1-1.4c0.1,0,0.2,0,0.4,0h21.8c0.7-0.1,1.3,0.4,1.4,1c0,0.1,0,0.2,0,0.4v101.1c0.1,0.7-0.4,1.3-1.1,1.4
	c-0.1,0-0.2,0-0.3,0h-23.8c-0.4,0-0.9-0.1-1.2-0.2c-0.4-0.2-0.7-0.6-0.9-1l-30.7-52.6c-1-1.6-1.8-3.3-2.6-5.1
	c-0.2-0.7-0.5-1.3-0.9-1.9v59.4c0.1,0.7-0.4,1.3-1,1.4c-0.1,0-0.2,0-0.4,0L790,289z"/>
<path class="st0" d="M922.4,289c-0.7,0.1-1.3-0.4-1.4-1.1c0-0.1,0-0.2,0-0.4V186.6c-0.1-0.7,0.4-1.3,1-1.4c0.1,0,0.2,0,0.4,0h21.9
	c0.7-0.1,1.3,0.4,1.4,1c0,0.1,0,0.2,0,0.4v101.1c0.1,0.7-0.4,1.3-1.1,1.4c-0.1,0-0.2,0-0.3,0h-21.9L922.4,289L922.4,289z"/>
<path class="st0" d="M1034.3,291.2c-6.6,0.1-13.2-0.7-19.6-2.4c-5.5-1.4-10.5-4.2-14.6-8.1c-4.2-4.2-7.3-9.3-9.1-15
	c-2.1-6.2-3.1-14-3.1-23.3v-10.8c0-9.2,1-16.9,3.1-23.1c1.8-5.7,4.9-10.8,9.1-15c4.1-3.9,9.1-6.6,14.6-8.1c6.4-1.7,13-2.5,19.6-2.4
	c2.5,0,5.1,0.1,7.6,0.2c2.5,0.2,4.9,0.4,7.2,0.7c2.3,0.3,4.5,0.7,6.5,1.2c1.9,0.4,3.7,1,5.5,1.6c0.4,0.1,0.7,0.3,1,0.7
	c0.2,0.4,0.2,0.8,0.1,1.2l-3.2,19.1c0,0.7-0.6,1.2-1.2,1.2c-0.1,0-0.3,0-0.4-0.1c-3.6-0.8-7.3-1.4-11.1-1.7
	c-3.7-0.3-7.4-0.5-11.1-0.5c-3.3-0.1-6.5,0.3-9.7,1.2c-2.7,0.7-5.1,2.1-7.1,4c-2,2.1-3.5,4.6-4.3,7.4c-1,3.7-1.5,7.6-1.4,11.5v12.2
	c-0.1,3.9,0.4,7.8,1.5,11.5c0.8,2.8,2.3,5.4,4.3,7.5c1.9,1.9,4.4,3.3,7,4c3.2,0.8,6.5,1.3,9.8,1.2c3.9,0,7.8-0.1,11.6-0.4
	s7.7-0.6,11.5-1c0.7-0.2,1.4,0.2,1.6,0.8c0,0.1,0.1,0.2,0.1,0.4l2.8,19.6c0.2,0.7-0.2,1.4-0.9,1.6c-0.1,0-0.2,0-0.2,0
	c-1.7,0.4-3.5,0.8-5.6,1.1s-4.3,0.6-6.7,0.8s-4.8,0.4-7.4,0.5S1036.9,291.2,1034.3,291.2z"/>
<path class="st0" d="M1093.4,289c-0.9,0-1.3-0.4-1-1.3l30.7-101.2c0.1-0.4,0.3-0.8,0.7-1.1c0.4-0.2,0.8-0.3,1.2-0.3h31.1
	c0.4,0,0.8,0.1,1.2,0.3c0.3,0.3,0.6,0.6,0.7,1.1l30.8,101.2c0.3,0.9,0,1.3-1,1.3h-24.3c-0.8,0.1-1.6-0.5-1.8-1.3l-4.2-15.6h-34
	l-4.2,15.6c-0.2,0.8-0.9,1.4-1.8,1.3H1093.4z M1140.4,209.1l-11.1,41.4h22.4L1140.4,209.1z"/>
<path class="st1" d="M968.8,83.1c0-42-35.4-56.6-35.4-56.6v113.3C933.4,139.8,968.8,125.2,968.8,83.1z"/>
<path class="st2" d="M933.4,139.8V26.5c0,0-35.4,14.6-35.4,56.6S933.4,139.8,933.4,139.8z"/>
<g>
	<path class="st0" d="M49.1,804.7c0,12-5.2,18.7-14.5,18.7h-6.4v21.1H17.4v-58.9H34C43.7,785.6,49.1,792.3,49.1,804.7z M28.2,814.7
		h5.5c3.3,0,4.8-2.6,4.8-9.9c0-7.5-1.4-9.7-4.8-9.7h-5.5V814.7z"/>
	<path class="st0" d="M69.5,820.6h-3.8v23.8H54.9v-58.9h16c10.5,0,15.1,6.1,15.1,16.9c0,8.2-2.3,13.2-7,15.4l9.4,26.5H77.1
		L69.5,820.6z M65.7,812h4.6c4,0,5.2-2.2,5.2-8.5c0-6.8-1.5-8.5-5.2-8.5h-4.6V812z"/>
	<path class="st0" d="M125.4,803.4v23.2c0,11.7-5.8,18.6-16.8,18.6c-11.1,0-16.8-6.9-16.8-18.6v-23.2c0-11.7,5.8-18.6,16.8-18.6
		C119.6,784.8,125.4,791.7,125.4,803.4z M114.6,803.4c0-6.8-1.9-9.2-6.1-9.2s-6.1,2.3-6.1,9.2v23.2c0,6.9,1.9,9.4,6.1,9.4
		s6.1-2.4,6.1-9.4V803.4z"/>
	<path class="st0" d="M138,844.5h-10.7l13.2-58.9h12.6l13.2,58.9h-10.9l-2.3-13h-12.8L138,844.5z M141.8,823.2h9.7l-4.8-26.5h-0.2
		L141.8,823.2z"/>
	<path class="st0" d="M198.6,798.6l-8.2,2.6c-0.7-4.8-2.5-6.8-5.7-6.8c-4,0-5.8,2.8-5.8,8.6v25.1c0,4.9,1.8,8,5.8,8
		c3.2,0,4.9-1.9,5.8-7.3l8.2,2.4c-1.5,9.8-6.5,14-14.9,14c-9.6,0-15.6-6.7-15.6-17.1v-25.2c0-11.3,6.1-18.2,15.7-18.2
		C191.8,784.8,197.3,790.4,198.6,798.6z"/>
	<path class="st0" d="M231.9,785.6v9.9h-10.2v49h-10.8v-49h-10.1v-9.9H231.9z"/>
	<path class="st0" d="M248.1,785.6v58.9h-10.7v-58.9H248.1z"/>
	<path class="st0" d="M278.4,844.5h-11.5L253,785.6h11.5l8.1,44.4h0.2l8.1-44.4h11.6L278.4,844.5z"/>
	<path class="st0" d="M323.9,785.6v9.8h-16.5v14.3h12.4v8.6h-12.4v16.4h17.1v9.7h-27.9v-58.9h27.3V785.6z"/>
	<path class="st0" d="M330.2,835h8.5v9.4h-8.5V835z"/>
	<path class="st0" d="M392.2,804.7c0,12-5.2,18.7-14.5,18.7h-6.4v21.1h-10.8v-58.9h16.6C386.8,785.6,392.2,792.3,392.2,804.7z
		 M371.3,814.7h5.5c3.3,0,4.8-2.6,4.8-9.9c0-7.5-1.4-9.7-4.8-9.7h-5.5V814.7z"/>
	<path class="st0" d="M412.5,820.6h-3.8v23.8h-10.8v-58.9h16c10.5,0,15.1,6.1,15.1,16.9c0,8.2-2.3,13.2-7,15.4l9.5,26.5h-11.3
		L412.5,820.6z M408.8,812h4.6c4,0,5.2-2.2,5.2-8.5c0-6.8-1.5-8.5-5.2-8.5h-4.6V812z"/>
	<path class="st0" d="M468.4,803.4v23.2c0,11.7-5.8,18.6-16.8,18.6s-16.8-6.9-16.8-18.6v-23.2c0-11.7,5.8-18.6,16.8-18.6
		S468.4,791.7,468.4,803.4z M457.7,803.4c0-6.8-1.9-9.2-6.1-9.2s-6.1,2.3-6.1,9.2v23.2c0,6.9,1.9,9.4,6.1,9.4s6.1-2.4,6.1-9.4V803.4
		z"/>
	<path class="st0" d="M502.8,785.6v9.8h-16.7v15.1h14.4v9.2h-14.4v24.7h-10.8v-58.9h27.5V785.6z"/>
	<path class="st0" d="M535.8,785.6v9.8h-16.4v14.3h12.4v8.6h-12.4v16.4h17.1v9.7h-27.9v-58.9h27.2V785.6z"/>
	<path class="st0" d="M570,797.5l-7.7,3.2c-1.2-5-3.6-6.8-6.9-6.8c-3.4,0-4.8,2-4.8,5.9c0,10.3,19.5,10.9,19.5,28.9
		c0,10.6-5.9,16.6-15.3,16.6c-7.6,0-14.1-5.1-15.6-14.2l8.3-2.6c1.3,5.8,4.2,7.7,7.3,7.7c3.6,0,5.1-1.9,5.1-5.9
		c0-12-20-12.5-20-29.9c0-8.7,5.4-15.6,14.6-15.6C563.1,784.8,567.6,789.6,570,797.5z"/>
	<path class="st0" d="M603.4,797.5l-7.7,3.2c-1.2-5-3.6-6.8-6.9-6.8c-3.4,0-4.8,2-4.8,5.9c0,10.3,19.5,10.9,19.5,28.9
		c0,10.6-5.9,16.6-15.3,16.6c-7.6,0-14.1-5.1-15.6-14.2l8.3-2.6c1.3,5.8,4.2,7.7,7.3,7.7c3.6,0,5.1-1.9,5.1-5.9
		c0-12-20-12.5-20-29.9c0-8.7,5.4-15.6,14.6-15.6C596.5,784.8,601,789.6,603.4,797.5z"/>
	<path class="st0" d="M620.3,785.6v58.9h-10.7v-58.9H620.3z"/>
	<path class="st0" d="M661.5,803.4v23.2c0,11.7-5.8,18.6-16.8,18.6s-16.8-6.9-16.8-18.6v-23.2c0-11.7,5.8-18.6,16.8-18.6
		S661.5,791.7,661.5,803.4z M650.8,803.4c0-6.8-1.9-9.2-6.1-9.2s-6.1,2.3-6.1,9.2v23.2c0,6.9,1.9,9.4,6.1,9.4s6.1-2.4,6.1-9.4V803.4
		z"/>
	<path class="st0" d="M676.2,785.6l15.3,32.7h0.2v-32.7h9.4v58.9h-7.3L678,810.6h-0.2v33.9h-9.4v-58.9H676.2z"/>
	<path class="st0" d="M716.3,844.5h-10.7l13.2-58.9h12.6l13.2,58.9h-10.9l-2.3-13h-12.8L716.3,844.5z M720.1,823.2h9.7l-4.8-26.5
		h-0.2L720.1,823.2z"/>
	<path class="st0" d="M759.6,785.6v48.9h15.7v10h-26.2v-58.9H759.6z"/>
	<path class="st0" d="M780.6,835h8.5v9.4h-8.5V835z"/>
	<path class="st0" d="M842.6,804.7c0,12-5.2,18.7-14.5,18.7h-6.4v21.1h-10.8v-58.9h16.6C837.2,785.6,842.6,792.3,842.6,804.7z
		 M821.8,814.7h5.5c3.3,0,4.8-2.6,4.8-9.9c0-7.5-1.4-9.7-4.8-9.7h-5.5V814.7z"/>
	<path class="st0" d="M863,820.6h-3.8v23.8h-10.8v-58.9h16c10.5,0,15.1,6.1,15.1,16.9c0,8.2-2.3,13.2-7,15.4l9.4,26.5h-11.3
		L863,820.6z M859.2,812h4.6c4,0,5.2-2.2,5.2-8.5c0-6.8-1.5-8.5-5.2-8.5h-4.6V812z"/>
	<path class="st0" d="M918.9,803.4v23.2c0,11.7-5.8,18.6-16.8,18.6s-16.8-6.9-16.8-18.6v-23.2c0-11.7,5.8-18.6,16.8-18.6
		S918.9,791.7,918.9,803.4z M908.2,803.4c0-6.8-1.9-9.2-6.1-9.2s-6.1,2.3-6.1,9.2v23.2c0,6.9,1.9,9.4,6.1,9.4s6.1-2.4,6.1-9.4V803.4
		z"/>
	<path class="st0" d="M957.5,798.5l-8.1,2.6c-1.5-5.1-3.7-6.9-6.9-6.9c-5,0-7.3,3.1-7.3,10.3v21.9c0,6.5,2.5,9.3,7.1,9.3
		c2.5,0,4.2-0.8,5.8-3.3v-10.1h-5v-7.6h14.3v30h-8.7v-3.1c-2.5,2.5-5.8,3.9-9.5,3.9c-8.8,0-14.8-6-14.8-18.9v-22
		c0-11.8,5.5-19.6,17.2-19.6C949.9,784.7,955.9,789.6,957.5,798.5z"/>
	<path class="st0" d="M979.2,820.6h-3.8v23.8h-10.8v-58.9h16c10.5,0,15.1,6.1,15.1,16.9c0,8.2-2.3,13.2-7,15.4l9.4,26.5h-11.3
		L979.2,820.6z M975.4,812h4.6c4,0,5.2-2.2,5.2-8.5c0-6.8-1.5-8.5-5.2-8.5h-4.6V812z"/>
	<path class="st0" d="M1029.9,785.6v9.8h-16.5v14.3h12.4v8.6h-12.4v16.4h17.1v9.7h-27.9v-58.9h27.3V785.6z"/>
	<path class="st0" d="M1064.1,797.5l-7.7,3.2c-1.2-5-3.6-6.8-6.9-6.8c-3.4,0-4.8,2-4.8,5.9c0,10.3,19.5,10.9,19.5,28.9
		c0,10.6-5.9,16.6-15.3,16.6c-7.6,0-14.1-5.1-15.6-14.2l8.3-2.6c1.3,5.8,4.2,7.7,7.3,7.7c3.6,0,5.1-1.9,5.1-5.9
		c0-12-20-12.5-20-29.9c0-8.7,5.4-15.6,14.6-15.6C1057.2,784.8,1061.7,789.6,1064.1,797.5z"/>
	<path class="st0" d="M1097.5,797.5l-7.7,3.2c-1.2-5-3.6-6.8-6.9-6.8c-3.4,0-4.8,2-4.8,5.9c0,10.3,19.5,10.9,19.5,28.9
		c0,10.6-5.9,16.6-15.3,16.6c-7.6,0-14.1-5.1-15.6-14.2l8.3-2.6c1.3,5.8,4.2,7.7,7.3,7.7c3.6,0,5.1-1.9,5.1-5.9
		c0-12-20-12.5-20-29.9c0-8.7,5.4-15.6,14.6-15.6C1090.6,784.8,1095.1,789.6,1097.5,797.5z"/>
	<path class="st0" d="M1114.4,785.6v58.9h-10.7v-58.9H1114.4z"/>
	<path class="st0" d="M1144.8,844.5h-11.5l-14-58.9h11.5l8.1,44.4h0.2l8.1-44.4h11.6L1144.8,844.5z"/>
	<path class="st0" d="M1190.2,785.6v9.8h-16.5v14.3h12.4v8.6h-12.4v16.4h17.1v9.7h-27.9v-58.9h27.3V785.6z"/>
	<path class="st0" d="M1196.5,835h8.5v9.4h-8.5V835z"/>
</g>
</svg>
